<?xml version="1.0" standalone="no"?>
<!DOCTYPE svg PUBLIC "-//W3C//DTD SVG 1.1//EN" "http://www.w3.org/Graphics/SVG/1.1/DTD/svg11.dtd" >
<svg xmlns="http://www.w3.org/2000/svg">
<metadata>
<json>
<![CDATA[
{
	"fontFamily": "liscio",
	"majorVersion": 1,
	"minorVersion": 0,
	"version": "Version 1.0",
	"fontId": "liscio",
	"psName": "liscio",
	"subFamily": "Regular",
	"fullName": "liscio",
	"description": "Font generated by IcoMoon."
}
]]>
</json>
</metadata>
<defs>
<font id="liscio" horiz-adv-x="512">
<font-face units-per-em="512" ascent="480" descent="-32" />
<missing-glyph horiz-adv-x="512" />
<glyph unicode="&#x20;" horiz-adv-x="256" d="" />
<glyph unicode="&#xe601;" glyph-name="multiple25" data-tags="multiple25" d="M298.44 337.372c18.969-11.894 32.272-32.021 34.698-55.383 7.731-3.615 16.322-5.694 25.421-5.694 33.239 0 60.17 26.936 60.17 60.165 0 33.234-26.931 60.17-60.17 60.17-32.916-0.005-59.618-26.46-60.119-59.259zM259.021 214.175c33.229 0 60.17 26.941 60.17 60.17s-26.942 60.165-60.17 60.165-60.18-26.941-60.18-60.17 26.952-60.165 60.18-60.165zM284.539 210.074h-51.052c-42.481 0-77.040-34.565-77.040-77.041v-62.443l0.159-0.978 4.301-1.346c40.54-12.662 75.76-16.891 104.75-16.891 56.622 0 89.442 16.144 91.469 17.173l4.019 2.038h0.43v62.449c0.005 42.476-34.555 77.041-77.036 77.041zM384.092 272.19h-50.663c-0.548-20.27-9.2-38.523-22.882-51.651 37.76-11.228 65.382-46.244 65.382-87.603v-19.241c50.022 1.838 78.848 16.010 80.748 16.968l4.019 2.038h0.43v62.454c0 42.476-34.56 77.036-77.036 77.036zM153.441 276.291c11.771 0 22.722 3.435 32 9.287 2.949 19.236 13.261 36.045 27.991 47.493 0.061 1.126 0.169 2.242 0.169 3.379 0 33.234-26.941 60.17-60.16 60.17-33.239 0-60.17-26.937-60.17-60.17 0-33.224 26.931-60.16 60.17-60.16zM207.478 220.539c-13.619 13.061-22.242 31.216-22.871 51.364-1.879 0.138-3.738 0.286-5.653 0.286h-51.052c-42.481 0-77.040-34.56-77.040-77.035v-62.449l0.158-0.967 4.301-1.351c32.522-10.158 61.547-14.832 86.758-16.307v18.857c0.010 41.36 27.627 76.37 65.398 87.603z" />
<glyph unicode="&#xe603;" glyph-name="university2" data-tags="university2" horiz-adv-x="725" d="M617.442 158.118l-18.74 108.18-229.337-136.738-224.915 136.765-18.688-116.761c0.079 0.158 0.263 0.316 0.448 0.5-2.685-4.474-4.159-9.081-4.159-13.793 0-41.245 173.114-168.272 230.785-168.272 57.722 0 268.371 127 268.371 168.272 0 4.449-1.474 8.765-3.764 21.846zM371.155 153.723l-352.441 213.57 353.415 112.707 352.467-111.102-353.441-215.176zM21.136 348.394l-21.136-233.995 21.136-70.173 19.583 70.173-19.583 233.995z" />
<glyph unicode="&#xe604;" glyph-name="ascendant6" data-tags="ascendant6" d="M512 0v-32h-512v512h32v-480h480zM228.906 302.281l130.719-32.656 45.25 75.375 41-24.625 2.125 127.625-111.594-61.938 41-24.625-33.031-55.063-125.281 31.344-134.406-134.406 22.625-22.625 121.593 121.594zM192 32h64v230.531l-17.281 4.313-46.719-46.719v-188.125zM96 146.75v-114.75h64v156.125l-52.688-52.688-11.312 11.313zM384 248v-216h64v249.781l-32.156 19.281-31.844-53.062zM352 32v206.531l-64 16v-222.531h64z" />
<glyph unicode="&#xe605;" glyph-name="close4" data-tags="close4" horiz-adv-x="621" d="M68.596 411.385c10.812 0 19.63 8.738 19.63 19.51 0 10.852-8.819 19.671-19.63 19.671s-19.57-8.819-19.57-19.671c0-10.791 8.758-19.51 19.57-19.51zM127.447 411.385c10.832 0 19.63 8.738 19.63 19.51 0 10.852-8.798 19.671-19.63 19.671-10.872 0-19.651-8.819-19.651-19.671 0-10.791 8.778-19.51 19.65-19.51zM187.485 411.385c10.852 0 19.59 8.738 19.59 19.51 0 10.852-8.738 19.671-19.59 19.671s-19.61-8.819-19.61-19.671c0-10.791 8.738-19.51 19.61-19.51zM461.445 287.582c16.832 0 33.1-2.678 48.321-7.55v101.494h-470.545v-332.991h283.644c-13.429 23.355-21.201 50.455-21.201 79.246 0 88.085 71.656 159.801 159.781 159.801zM542.603 27.193c-8.617-6.966-18.16-12.825-28.469-17.416 11.919 1.329 22.227 7.852 28.469 17.416zM549.026 261.248v179.512c0 21.664-17.577 39.24-39.26 39.24h-470.545c-21.684 0-39.221-17.577-39.221-39.24v-392.204c0-21.623 17.537-39.2 39.221-39.2h315.375c28.348-25.59 65.757-41.334 106.849-41.334 88.085 0 159.801 71.696 159.801 159.781-0.020 55.77-28.791 104.897-72.22 133.446zM187.485 450.544c10.852 0 19.59-8.818 19.59-19.67 0-10.772-8.738-19.51-19.59-19.51s-19.61 8.738-19.61 19.529c0 10.852 8.738 19.65 19.61 19.65zM127.447 450.544c10.832 0 19.63-8.818 19.63-19.67 0-10.772-8.798-19.51-19.63-19.51-10.872 0-19.651 8.738-19.651 19.51 0 10.872 8.778 19.67 19.65 19.67zM68.596 450.544c10.812 0 19.63-8.818 19.63-19.67 0-10.772-8.819-19.51-19.63-19.51s-19.57 8.738-19.57 19.529c0 10.852 8.758 19.65 19.57 19.65zM39.221 48.535v332.991h470.545v-101.494c-15.241 4.872-31.489 7.55-48.321 7.55-88.125 0-159.781-71.716-159.781-159.821 0-28.791 7.772-55.871 21.201-79.246h-283.644zM542.603 27.193c-6.261-9.563-16.55-16.087-28.469-17.416-16.127-7.188-33.905-11.315-52.69-11.315-18.423 0-35.918 3.886-51.784 10.892-19.852 8.738-37.087 22.248-50.253 39.2-17.074 21.906-27.261 49.308-27.261 79.246 0 71.334 57.985 129.379 129.298 129.379 17.113 0 33.382-3.463 48.321-9.523 14.678-5.899 27.845-14.436 39.24-24.925 25.59-23.637 41.778-57.421 41.778-94.93 0.020-40.61-18.845-76.89-48.18-100.608zM378.192 70.883l32.093-32.133c0 0 50.858 54.623 54.582 54.623 3.765 0 54.583-54.623 54.583-54.623l32.134 32.134c0 0-54.623 50.878-54.623 54.542 0 3.785 54.623 54.623 54.623 54.623l-32.134 32.113c0 0-51.281-54.582-54.582-54.582s-54.582 54.582-54.582 54.582l-32.093-32.134c0 0 54.502-50.053 54.502-54.623 0-4.469-54.502-54.522-54.502-54.522z" />
<glyph unicode="&#xe606;" glyph-name="viral" data-tags="viral" d="M295.622 440.345c0-21.901-17.754-39.655-39.655-39.655s-39.655 17.754-39.655 39.655c0 21.901 17.754 39.655 39.655 39.655s39.655-17.754 39.655-39.655zM295.622 7.699c0-21.901-17.754-39.655-39.655-39.655s-39.655 17.754-39.655 39.655c0 21.901 17.754 39.655 39.655 39.655s39.655-17.754 39.655-39.655zM511.978 224.011c0-21.913-17.764-39.677-39.677-39.677s-39.677 17.764-39.677 39.677c0 21.913 17.764 39.677 39.677 39.677s39.677-17.764 39.677-39.677zM79.354 224.011c0-21.913-17.764-39.677-39.677-39.677s-39.677 17.764-39.677 39.677c0 21.913 17.764 39.677 39.677 39.677s39.677-17.764 39.677-39.677zM372.801 107.199l-9.535 32.712-7.887-7.799-38.337 38.337c11.248 13.16 18.3 29.791 19.202 48.223h55.055v-11.072l29.923 16.411-29.923 16.411v-11.072h-55.341c-1.494 18.015-8.766 34.294-20.19 46.993l39.611 39.611 7.887-7.865 9.535 32.779-32.757-9.556 7.821-7.843-39.743-39.743c-12.808 10.963-28.956 17.861-46.839 19.070v56.527h11.094l-16.433 29.945-16.389-29.945h11.117v-56.505c-17.883-1.187-34.075-8.107-46.883-19.070l-39.743 39.721 7.865 7.843-32.757 9.556 9.556-32.779 7.865 7.865 39.567-39.567c-11.424-12.699-18.718-28.978-20.212-47.015h-55.254v11.072l-29.922-16.411 29.922-16.411v11.072h54.946c0.923-18.433 7.975-35.086 19.224-48.223l-38.337-38.337-7.865 7.799-9.491-32.757 32.757 9.535-7.865 7.865 38.205 38.227c13.050-11.71 29.813-19.091 48.399-20.322v-53.781h-11.117l16.389-29.901 16.455 29.901h-11.094v53.781c18.586 1.252 35.327 8.656 48.355 20.344l38.249-38.249-7.865-7.843 32.779-9.535zM448.574 376.985c0-21.901-17.754-39.655-39.655-39.655s-39.655 17.754-39.655 39.655c0 21.901 17.754 39.655 39.655 39.655s39.655-17.754 39.655-39.655zM142.67 71.059c0-21.901-17.754-39.655-39.655-39.655s-39.655 17.754-39.655 39.655c0 21.901 17.754 39.655 39.655 39.655s39.655-17.754 39.655-39.655zM448.574 71.059c0-21.901-17.754-39.655-39.655-39.655s-39.655 17.754-39.655 39.655c0 21.901 17.754 39.655 39.655 39.655s39.655-17.754 39.655-39.655zM142.67 376.985c0-21.913-17.764-39.677-39.677-39.677s-39.677 17.764-39.677 39.677c0 21.913 17.764 39.677 39.677 39.677s39.677-17.764 39.677-39.677z" />
<glyph unicode="&#xe607;" glyph-name="business108" data-tags="business108" d="M426.707 371.582c-0.598 0.365-1.227 0.601-1.849 0.89-5.059 3.316-10.716 5.758-16.474 7.172l-11.488-11.561-11.134 11.687c-0.041-0.008-0.082-0.008-0.114-0.024-5.522-1.317-10.943-3.609-15.839-6.689-1.227-0.374-2.434-0.858-3.596-1.512-7.135-4.010-13.93-4.795-21.362-2.478-24.62 7.672-47.551 45.239-54.305 59.046-1.8 3.71-4.742 6.445-8.168 8.147l-4.909 1.634c-3.563 0.613-7.339 0.199-10.837-1.504-8.895-4.32-12.601-15.027-8.281-23.918 1.045-2.157 4.957-9.943 11.288-19.866l4.222-6.38c13.214-19.228 34.089-43.118 60.257-51.31 5.177-1.622 10.399-2.524 15.591-2.796v-94.33c0-4.872 0.959-9.407 2.633-13.576-0.114-0.89-0.272-1.771-0.272-2.698l0.012-171.411c0-11.687 9.476-21.154 21.159-21.154 11.683 0.004 21.154 9.472 21.154 21.154l-0.012 147.106c0.841-0.041 1.674-0.101 2.519-0.101 0.166 0 0.329 0.017 0.5 0.021l-0.008-147.026c0-11.683 9.472-21.154 21.159-21.154v0c11.683 0 21.154 9.472 21.154 21.154l0.004 168.159c1.113-1.065 2.325-2.040 3.738-2.812 2.714-1.475 5.649-2.178 8.541-2.178 6.347 0 12.491 3.381 15.738 9.35 50.497 92.818-18.387 135.067-41.025 148.956zM397.012 276.826h-0.212l-11.118 15.218 11.118 74.326h0.212l11.122-74.326-11.122-15.218zM444.095 256.524v51.188c6.835-12.93 8.366-29.302 0-51.188zM443.010 428.426c0-25.465-20.644-46.108-46.108-46.108s-46.108 20.644-46.108 46.108c0 25.465 20.644 46.108 46.108 46.108s46.108-20.643 46.108-46.108zM295.095 217.178h-225.914c-14.348 0-26.023 11.674-26.023 26.023v207.071c0 14.348 11.675 26.022 26.023 26.022h225.914c14.348 0 26.022-11.674 26.022-26.022v-207.067c-0.004-14.352-11.675-26.026-26.022-26.026zM69.181 458.943c-4.787 0-8.675-3.889-8.675-8.675v-207.067c0-4.782 3.889-8.675 8.675-8.675h225.914c4.783 0 8.675 3.893 8.675 8.675v207.071c0 4.787-3.893 8.675-8.675 8.675h-225.914zM147.611 154.909c0-20.162-16.345-36.507-36.507-36.507s-36.507 16.344-36.507 36.507c0 20.162 16.344 36.507 36.507 36.507s36.507-16.344 36.507-36.507zM68.811 35.096c-1.085 10.009 0.939 18.216 4.929 25.145v-25.145h37.116l-8.639 11.825 8.802 58.851h0.171l8.802-58.851-8.639-11.825h37.116v25.076c3.962-6.912 5.974-15.104 4.893-25.076h28.571c3.284 43.805-32.638 65.885-46.548 74.419-0.613 0.374-1.26 0.646-1.901 0.918-4.067 2.711-8.631 4.709-13.287 5.851l-9.094-9.151-8.818 9.252c-0.028-0.004-0.061-0.004-0.094-0.012-4.746-1.138-9.403-3.178-13.54-5.949-0.634-0.268-1.272-0.533-1.873-0.906-13.909-8.534-49.831-30.615-46.547-74.419h28.582zM289.727 154.909c0-20.162-16.344-36.507-36.507-36.507s-36.507 16.344-36.507 36.507c0 20.162 16.345 36.507 36.507 36.507s36.507-16.344 36.507-36.507zM210.928 35.096c-1.089 10.009 0.942 18.216 4.933 25.145v-25.145h37.116l-8.639 11.825 8.802 58.851h0.171l8.806-58.851-8.643-11.825h37.116v25.076c3.966-6.912 5.974-15.104 4.897-25.076h28.567c3.284 43.805-32.634 65.885-46.548 74.419-0.61 0.374-1.255 0.646-1.901 0.918-4.063 2.711-8.631 4.709-13.288 5.851l-9.094-9.151-8.818 9.252c-0.024-0.004-0.057-0.004-0.089-0.012-4.75-1.138-9.407-3.178-13.543-5.949-0.63-0.268-1.268-0.533-1.869-0.906-13.913-8.534-49.831-30.615-46.548-74.419h28.575zM26.181 23.731h417.414v-52.025h-417.414v52.025zM276.050 371.221l-72.423-24.146-38.1 28.985-27.538-25.564-56.173 56.173v-153.51h-7.428v-6.173h211.517v6.173h-9.854v118.060zM270.096 333.174l-66.401-22.138-38.319 18.969-28.518-16.294-49.087 55.511v23.065l50.062-50.062 28.071 26.063 36.612-27.859 67.58 22.52v-29.773z" />
<glyph unicode="&#xe60f;" glyph-name="slack" data-tags="slack" d="M503.072 214.464c-9.92 22.208-35.984 32.176-58.192 22.256l-21.2-9.504-54.32 121.456 21.2 9.472c22.208 9.952 32.16 36 22.224 58.192-9.936 22.224-35.968 32.192-58.192 22.24l-21.184-9.488-9.488 21.216c-9.936 22.208-35.984 32.144-58.192 22.208-22.208-9.92-32.144-35.952-22.224-58.192l9.488-21.2-121.456-54.32-9.472 21.2c-9.936 22.24-35.984 32.144-58.192 22.24-22.208-9.936-32.144-35.984-22.224-58.192l9.472-21.184-21.184-9.504c-22.208-9.936-32.16-35.952-22.224-58.176 9.92-22.208 35.984-32.16 58.192-22.24l21.2 9.504 54.304-121.472-21.2-9.456c-22.208-9.952-32.144-36-22.224-58.192 9.936-22.224 35.984-32.176 58.192-22.256l21.184 9.488 9.488-21.2c9.936-22.224 35.984-32.16 58.192-22.224 22.192 9.92 32.144 35.968 22.208 58.176l-9.456 21.216 121.456 54.304 9.472-21.152c9.936-22.24 35.968-32.192 58.176-22.256 22.208 9.904 32.16 35.968 22.224 58.176l-9.472 21.2 21.184 9.488c22.224 9.936 32.176 35.968 22.24 58.176zM221.824 136.928l-54.32 121.488 121.456 54.304 54.32-121.456-121.456-54.336z" />
<glyph unicode="&#xe610;" glyph-name="contract11" data-tags="contract, minimize, shrink, collapse" d="M32 192h192v-192l-69.13 69.13-101-101-53.74 53.74 101 101zM410.87 122.87l101-101-53.74-53.74-101 101-69.13-69.13v192h192zM480 256h-192v192l69.13-69.13 101 101 53.74-53.74-101-101zM154.87 378.87l69.13 69.13v-192h-192l69.13 69.13-101 101 53.74 53.74z" />
<glyph unicode="&#xe611;" glyph-name="arrow-left20" data-tags="arrow-left, left, previous" d="M255.616 61.44v97.997l179.635-0.026v142.131h-179.635v97.817l-194.125-168.985z" />
<glyph unicode="&#xe612;" glyph-name="arrow-right20" data-tags="arrow-right, right, next" d="M256.384 399.36v-97.997l-179.635 0.026v-142.131h179.635v-97.817l194.125 168.986z" />
<glyph unicode="&#xe613;" glyph-name="printer82" data-tags="printer82" d="M144 112h240v-16h-240v16zM144 64h240v-16h-240v16zM448 288h-32v112c0 17.6-14.4 32-32 32h-240c-17.6 0-32-14.4-32-32v-112h-32c-27.2 0-48-20.8-48-48v-144c0-27.2 20.8-48 48-48h32v-16c0-17.6 14.4-32 32-32h240c17.6 0 32 14.4 32 32v16h32c27.2 0 48 20.8 48 48v144c0 27.2-20.8 48-48 48zM128 400c0 8 6.4 16 16 16h240c8 0 16-6.4 16-16v-112h-272v112zM400 32c0-8-6.4-16-16-16h-240c-8 0-16 6.4-16 16v112h272v-112zM480 96c0-17.6-14.4-32-32-32h-32v96h-304v-96h-32c-17.6 0-32 14.4-32 32v144c0 17.6 14.4 32 32 32h368c17.6 0 32-14.4 32-32v-144zM416 224c0-8.837-7.163-16-16-16s-16 7.163-16 16c0 8.837 7.163 16 16 16s16-7.163 16-16z" />
<glyph unicode="&#xe614;" glyph-name="printer70" data-tags="printer70" d="M128 448h256v-64h32v64c0 17.656-14.313 32-32 32h-256c-17.656 0-32-14.344-32-32v-64h32v64zM480 352h-448c-17.656 0-32-14.344-32-32v-160c0-17.688 14.344-32 32-32h64v-128c0-17.688 14.344-32 32-32h256c17.688 0 32 14.313 32 32v128h64c17.688 0 32 14.313 32 32v160c0 17.656-14.312 32-32 32zM384 0h-256v224h256v-224zM448 256c-17.688 0-32 14.313-32 32 0 17.656 14.313 32 32 32s32-14.344 32-32c0-17.688-14.312-32-32-32zM160 192h128v-32h-128v32zM160 128h192v-32h-192v32zM160 64h192v-32h-192v32z" />
<glyph unicode="&#xe615;" glyph-name="article2" data-tags="article2" d="M451.625 465.51c0 7.895-6.589 14.49-14.495 14.49-120.755 0-241.506 0-362.26 0-7.895 0-14.489-6.594-14.489-14.49 0-161.008 0-322.022 0-483.021 0-7.9 6.595-14.489 14.489-14.489 120.755 0 241.505 0 362.26 0 4.265 0 7.511 1.551 9.831 3.881 0.138 0.118 0.272 0.261 0.399 0.384 0.118 0.123 0.272 0.266 0.379 0.399 2.329 2.314 3.886 5.56 3.886 9.825 0 160.998 0 322.012 0 483.021zM422.64-3.021c-111.089 0-222.188 0-333.281 0 0 151.353 0 302.695 0 454.041 111.094 0 222.188 0 333.281 0 0-151.347 0-302.69 0-454.041zM128.855 395.52h109.225v-20.48h-109.225v20.48zM275.625 398.080h110.080v-102.4h-110.080v102.4zM128.855 354.56h109.225v-20.48h-109.225v20.48zM128.855 313.6h109.225v-20.48h-109.225v20.48zM128.855 272.64h256.855v-20.48h-256.855v20.48zM128.855 221.44h256.855v-20.48h-256.855v20.48zM327.936 108.718h-11.161c-1.454 5.601-3.707 10.983-6.589 15.872l7.916 7.931c2.401 2.401 2.401 6.298 0 8.699l-13.031 13.041c-2.401 2.401-6.293 2.401-8.688 0l-7.957-7.916c-4.885 2.882-10.265 5.135-15.867 6.589v11.161c0 3.394-2.668 6.144-6.072 6.144h-18.432c-3.394 0-6.072-2.75-6.072-6.144v-11.161c-5.591-1.454-10.977-3.697-15.862-6.584l-7.936 7.911c-2.401 2.401-6.298 2.401-8.699 0l-13.036-13.031c-2.401-2.401-2.401-6.293 0-8.688l7.916-7.952c-2.893-4.889-5.136-10.271-6.589-15.872h-11.161c-3.394 0-6.144-2.668-6.144-6.072v-18.432c0-3.394 2.75-6.072 6.144-6.072h11.161c1.454-5.601 3.696-10.983 6.589-15.872l-7.916-7.931c-2.401-2.401-2.401-6.298 0-8.699l13.030-13.036c2.401-2.406 6.292-2.406 8.689-0.005l7.952 7.916c4.885-2.882 10.27-5.135 15.862-6.589v-11.166c0-3.389 2.673-6.139 6.072-6.139h18.432c3.394 0 6.072 2.75 6.072 6.139v11.166c5.601 1.454 10.983 3.707 15.872 6.589l7.931-7.916c2.401-2.401 6.298-2.401 8.699 0l13.036 13.031c2.406 2.401 2.406 6.293 0.005 8.688l-7.916 7.957c2.882 4.885 5.135 10.265 6.589 15.867h11.161c3.394 0 6.144 2.668 6.144 6.072v18.432c0 3.405-2.75 6.072-6.144 6.072zM257.28 62.72c-16.968 0-30.72 13.762-30.72 30.72 0 16.967 13.752 30.72 30.72 30.72 16.962 0 30.72-13.752 30.72-30.72 0-16.962-13.757-30.72-30.72-30.72z" />
<glyph unicode="&#xe616;" glyph-name="male302" data-tags="male30" d="M28.055 1.425c14.391 7.709 28.661 15.683 43.4 22.676 14.29 6.838 29.068 12.688 43.687 18.87 13.752 5.774 27.659 11.241 41.315 17.188 2.338 1.022 4.714 3.533 5.678 5.892 3.053 7.649 5.639 15.548 8.053 23.428 1.834 5.967 3.012 11.877 10.699 13.462 1.93 0.404 4.306 3.726 4.596 5.988 1.565 11.473 2.742 23.004 3.533 34.591 0.194 2.452-1.081 5.619-2.763 7.494-10.123 11.317-15.683 24.375-18.020 39.401-1.178 7.515-5.37 14.484-7.553 21.882-2.877 9.946-5.274 19.989-7.553 30.111-0.833 3.63-0.349 7.57-0.946 11.279-0.887 5.429-0.715 9.618 5.812 11.704 1.796 0.58 3.302 4.887 3.361 7.532 0.328 16.107 0.118 32.235 0.21 48.342 0.076 9.887-0.020 19.816 0.694 29.686 1.392 18.908 12.477 32.235 26.385 43.687 20.299 16.746 44.616 24.548 69.609 30.477 13.113 3.070 26.499 4.962 39.826 7.087 3.575 0.58 7.262 0.096 10.892 0.096 0.58-0.925 1.199-1.834 1.817-2.763-2.822-2.010-5.909-3.709-8.323-6.103-5.429-5.429-4.908-9.252 0.925-14.139 12.032-10.215 24.106-20.413 35.81-30.981 10.312-9.252 14.332-21.401 14.349-35.036 0.021-23.466 0.038-46.933 0.021-70.421-0.021-4.811-0.366-9.542 5.601-11.666 1.253-0.446 2.587-3.091 2.473-4.596-1.005-12.015-2.3-24.009-3.575-36.003-0.038-0.445-0.135-1.005-0.404-1.333-10.796-15.741-12.188-35.074-19.875-51.993-0.328-0.639-0.463-1.392-0.947-1.913-14.291-16.86-9.849-37.142-10.123-56.476-0.038-1.969 1.371-5.060 2.956-5.716 5.85-2.57 7.28-7.591 8.903-12.882 2.531-8.365 5.060-16.764 8.634-24.682 1.295-2.935 5.236-5.408 8.499-6.644 43.998-16.901 87.57-34.784 129.579-56.32 8.402-4.327 15.644-9.618 21.747-15.914v475.724c-167.454 0-334.828 0-502.164 0v-476.885c6.758 6.279 14.698 11.317 23.177 15.858z" />
<glyph unicode="&#xe617;" glyph-name="lightbulb11" data-tags="lightbulb11" d="M256 384c-79.531 0-144-64.469-144-144 0-56.406 32.75-104.75 80-128.375v-79.625c0-17.688 14.313-32 32-32 0-17.688 14.313-32 32-32s32 14.313 32 32c17.688 0 32 14.313 32 32v79.625c47.25 23.625 80 71.969 80 128.375 0 79.531-64.469 144-144 144zM288 32h-64v32h64v-32zM305.688 140.25l-17.688-8.844v-35.406h-64v35.406l-17.688 8.844c-38.437 19.219-62.312 57.437-62.312 99.75 0 61.75 50.25 112 112 112s112-50.25 112-112c0-42.313-23.875-80.531-62.312-99.75zM240 416v48c0 8.844 7.156 16 16 16s16-7.156 16-16v-48c0-8.813-7.156-16-16-16s-16 7.187-16 16zM394.563 320c-4.438 7.625-1.813 17.438 5.844 21.844l41.593 24.031c7.656 4.375 17.469 1.813 21.844-5.875 4.438-7.656 1.813-17.438-5.844-21.875l-41.594-24c-2.531-1.438-5.281-2.125-8-2.125-5.5 0-10.906 2.844-13.843 8zM330.156 400.406l24 41.594c4.406 7.625 14.219 10.188 21.844 5.844 7.656-4.406 10.281-14.219 5.844-21.844l-24-41.594c-2.938-5.125-8.344-8-13.844-8-2.719 0-5.469 0.688-8 2.156-7.656 4.407-10.281 14.188-5.844 21.844zM117.438 160c4.438-7.656 1.813-17.438-5.844-21.844l-41.594-24c-2.5-1.469-5.25-2.156-7.969-2.156-5.531 0-10.906 2.875-13.875 8-4.406 7.656-1.781 17.438 5.844 21.844l41.594 24c7.594 4.468 17.406 1.812 21.844-5.844zM80 224h-48c-8.844 0-16 7.156-16 16s7.156 16 16 16h48c8.813 0 16-7.156 16-16s-7.187-16-16-16zM48.156 360c4.406 7.656 14.219 10.313 21.844 5.875l41.625-24.063c7.688-4.406 10.313-14.188 5.875-21.844-2.969-5.125-8.344-8-13.875-8-2.719 0-5.469 0.688-8 2.156l-41.625 24c-7.625 4.438-10.25 14.22-5.844 21.876zM130.125 426c-4.406 7.625-1.781 17.438 5.875 21.844 7.594 4.438 17.406 1.781 21.875-5.844l23.938-41.5c4.438-7.688 1.813-17.438-5.875-21.875-2.5-1.438-5.25-2.125-7.969-2.125-5.531 0-10.906 2.875-13.875 8l-23.969 41.5zM463.844 120c-2.938-5.125-8.344-8-13.844-8-2.719 0-5.469 0.688-8 2.156l-41.625 24.031c-7.656 4.406-10.281 14.188-5.844 21.844 4.406 7.625 14.219 10.25 21.844 5.844l41.625-24.031c7.656-4.407 10.281-14.188 5.844-21.844zM496 240c0-8.844-7.156-16-16-16h-48c-8.844 0-16 7.156-16 16s7.156 16 16 16h48c8.844 0 16-7.156 16-16zM192 160l64 80h64l-128-80zM320 320l-64-80h-64l128 80z" />
<glyph unicode="&#xe618;" glyph-name="event8" data-tags="event8" horiz-adv-x="550" d="M431.106 205.564c-65.608 0-118.807-53.214-118.807-118.806 0-65.576 53.199-118.757 118.807-118.757 65.576 0 118.774 53.182 118.774 118.757 0 65.592-53.199 118.807-118.774 118.807zM438.728-1.045v10.256c0 4.242-3.421 7.672-7.623 7.672-4.242 0-7.656-3.438-7.656-7.672v-10.256c-42.536 3.657-76.514 37.644-80.171 80.171h10.288c4.202 0 7.639 3.421 7.639 7.623 0 4.274-3.438 7.656-7.639 7.656h-10.288c3.657 42.544 37.644 76.498 80.171 80.171v-10.272c0-4.226 3.421-7.656 7.656-7.656 4.202 0 7.623 3.438 7.623 7.656v10.272c42.552-3.673 76.531-37.627 80.171-80.171h-10.288c-4.226 0-7.639-3.389-7.639-7.656 0-4.209 3.421-7.623 7.639-7.623h10.288c-3.633-42.528-37.619-76.506-80.171-80.171zM475.364 98.241h-27.558c-3.673 5.298-9.776 8.817-16.7 8.817-0.106 0-0.219-0.033-0.341-0.033l-25.112 35.352c-3.657 5.144-10.825 6.339-15.986 2.698-5.144-3.673-6.38-10.858-2.698-16.018l25.128-35.368c-0.772-2.17-1.268-4.478-1.268-6.94 0-11.199 9.062-20.26 20.276-20.26 6.924 0 13.060 3.486 16.7 8.801h27.558c6.322 0 11.467 5.112 11.467 11.45 0 6.372-5.144 11.5-11.467 11.5zM114.329 323.201c20.789 0 37.611 16.839 37.611 37.603v81.594c0 20.772-16.822 37.603-37.611 37.603-20.772 0-37.587-16.83-37.587-37.603v-81.602c0-20.756 16.814-37.595 37.587-37.595zM344.644 323.201c20.788 0 37.611 16.839 37.611 37.603v81.594c0 20.772-16.822 37.603-37.611 37.603-20.756 0-37.587-16.83-37.587-37.603v-81.602c-0.008-20.756 16.831-37.595 37.587-37.595zM165.284 218.795c0 10.736-8.679 19.431-19.44 19.431h-36.035c-10.736 0-19.456-8.696-19.456-19.431v-36.018c0-10.752 8.72-19.472 19.456-19.472h36.035c10.752 0 19.44 8.72 19.44 19.472v36.018zM266.967 218.771c0 10.736-8.704 19.423-19.415 19.423h-36.050c-10.736 0-19.423-8.688-19.423-19.423v-36.026c0-10.719 8.688-19.44 19.423-19.44h36.050c10.72 0 19.415 8.72 19.415 19.44v36.026zM313.168 238.226c-10.752 0-19.456-8.696-19.456-19.432v-36.018c0-9.728 7.249-17.399 16.546-18.855 14.255 22.202 34.442 40.179 58.343 51.8v3.072c0 10.736-8.688 19.431-19.44 19.431h-35.994zM109.818 140.59c-10.736 0-19.456-8.688-19.456-19.423v-36.034c0-10.736 8.72-19.423 19.456-19.423h36.050c10.736 0 19.415 8.688 19.415 19.423v36.034c0 10.736-8.679 19.423-19.415 19.423h-36.050zM247.512 140.574h-36.018c-10.736 0-19.423-8.704-19.423-19.44v-36.002c0-10.736 8.688-19.423 19.423-19.423h36.018c10.719 0 19.423 8.688 19.423 19.423v36.002c0 10.736-8.704 19.44-19.423 19.44zM300.043 28.497h-182.814c-31.467 0-57.075 25.608-57.075 57.043v190.94h338.695v-49.964c10.378 2.389 21.13 3.787 32.255 3.787 9.541 0 18.854-0.983 27.883-2.78v179.587h-54.173v-46.307c0-33.174-26.973-60.155-60.171-60.155-33.182 0-60.155 26.981-60.155 60.155v46.307h-109.989v-46.307c0-33.174-26.989-60.155-60.171-60.155-33.166 0-60.155 26.981-60.155 60.155v46.307h-54.173v-321.563c0-64.722 52.483-117.23 117.23-117.23h224.52c2.666 0 5.298 0.219 7.916 0.39-21.568 14.904-38.798 35.587-49.623 59.789z" />
<glyph unicode="&#xe619;" glyph-name="calendar146" data-tags="calendar146" d="M132.029 351.38h6.938c10.544 0 19.091 8.55 19.091 19.091v72.389c0 10.541-8.547 19.090-19.091 19.090h-6.938c-10.543 0-19.090-8.549-19.090-19.090v-72.389c0-10.541 8.547-19.091 19.090-19.091zM376.897 351.853h6.938c10.543 0 19.090 8.549 19.090 19.091v72.39c0 10.54-8.547 19.089-19.090 19.089h-6.938c-10.544 0-19.091-8.549-19.091-19.089v-72.389c0.001-10.543 8.548-19.092 19.091-19.092zM467.44 423.154h-48.996v-57.209c0-19.084-15.525-29.61-34.608-29.61h-6.938c-19.084 0-34.609 15.526-34.609 34.61v52.209h-168.712v-52.682c0-19.084-15.525-34.61-34.609-34.61h-6.938c-19.083 0-34.608 15.526-34.608 34.61v52.682h-52.862c-17.113 0-31.036-13.923-31.036-31.037v-375.030c0-17.114 13.923-31.037 31.036-31.037h422.88c17.113 0 31.036 13.923 31.036 31.037v375.030c0.001 17.113-13.922 31.037-31.036 31.037zM467.44 17.087h-422.879l-0.001 283.213h422.885l0.016-283.212c-0.001 0-0.008-0.001-0.021-0.001zM272.022 205.302h55.726c2.209 0 4 1.791 4 4v48.255c0 2.209-1.791 4-4 4h-55.726c-2.209 0-4-1.791-4-4v-48.255c0-2.209 1.791-4 4-4zM362.967 205.302h55.726c2.209 0 4 1.791 4 4v48.255c0 2.209-1.791 4-4 4h-55.726c-2.209 0-4-1.791-4-4v-48.255c0-2.209 1.791-4 4-4zM90.135 126.302h55.726c2.209 0 4 1.791 4 4v48.255c0 2.209-1.791 4-4 4h-55.726c-2.209 0-4-1.791-4-4v-48.255c0-2.209 1.791-4 4-4zM181.079 126.302h55.726c2.209 0 4 1.791 4 4v48.255c0 2.209-1.791 4-4 4h-55.726c-2.209 0-4-1.791-4-4v-48.255c0-2.209 1.791-4 4-4zM272.023 126.302h55.726c2.209 0 4 1.791 4 4v48.255c0 2.209-1.791 4-4 4h-55.726c-2.209 0-4-1.791-4-4v-48.255c0-2.209 1.791-4 4-4zM362.968 126.302h55.726c2.209 0 4 1.791 4 4v48.255c0 2.209-1.791 4-4 4h-55.726c-2.209 0-4-1.791-4-4v-48.255c0-2.209 1.791-4 4-4zM145.861 103.557h-55.725c-2.209 0-4-1.791-4-4v-48.255c0-2.209 1.791-4 4-4h55.726c2.209 0 4 1.791 4 4v48.255c-0.001 2.209-1.792 4-4.001 4zM236.806 103.557h-55.726c-2.209 0-4-1.791-4-4v-48.255c0-2.209 1.791-4 4-4h55.726c2.209 0 4 1.791 4 4v48.255c0 2.209-1.791 4-4 4zM327.75 103.557h-55.726c-2.209 0-4-1.791-4-4v-48.255c0-2.209 1.791-4 4-4h55.726c2.209 0 4 1.791 4 4v48.255c0 2.209-1.791 4-4 4zM418.694 103.557h-55.726c-2.209 0-4-1.791-4-4v-48.255c0-2.209 1.791-4 4-4h55.726c2.209 0 4 1.791 4 4v48.255c0 2.209-1.791 4-4 4z" />
<glyph unicode="&#xe61a;" glyph-name="important" data-tags="important" d="M160.296 318.641c1.773-8.152 4.49-13.43 7.661-16.719 7.542-52.5 54.666-97.24 92.514-95.37 48.147 2.363 82.274 54.252 89.935 95.37 3.171 3.269 6.223 10.26 8.054 18.471 2.048 9.433 4.253 23.65-1.418 31.173-0.335 0.394-2.501 2.383-2.875 2.717 5.416 19.535 17.31 54.39-12.308 85.721-16.049 16.975-38.341 25.502-58.486 32.237-59.471 19.869-101.455-7.995-120.832-54.331-1.398-3.288-10.437-24.103 0.512-63.626-1.064-0.709-2.029-1.615-2.835-2.717-5.691-7.503-1.989-23.493 0.079-32.925zM467.87 29.913c-1.654 36.135-3.702 93.4-35.269 140.249 0 0-9 12.269-30.346 20.421 0 0-46.356 14.12-67.702 29.381l-9.748-6.675 1.083-63.37-58.526-156.239c-1.28-3.426-4.549-5.691-8.192-5.691s-6.912 2.264-8.192 5.691l-58.506 156.239c0 0 1.083 63.173 1.064 63.37 0.138-0.531-9.768 6.675-9.768 6.675-21.307-15.262-67.683-29.381-67.683-29.381-21.346-8.152-30.346-20.421-30.346-20.421-31.547-46.848-33.635-104.113-35.288-140.248-1.142-24.97 4.096-34.284 10.673-36.943 81.644-32.768 314.387-32.768 396.051 0 6.616 2.639 11.815 11.973 10.693 36.943zM261.258 186.368l-2.639-0.059c-8.507 0-17.093 1.654-25.521 4.568l23.197-35.505-20.815-20.086 21.425-130.107c0.177-1.123 1.142-1.93 2.284-1.93 1.123 0 2.087 0.808 2.284 1.93l21.425 130.107-20.834 20.086 22.863 34.974c-7.464-2.186-15.36-3.643-23.67-3.978z" />
<glyph unicode="&#xe61c;" glyph-name="application5" data-tags="application5" horiz-adv-x="381" d="M364.17 480h-347.368c-9.297 0-16.802-7.524-16.802-16.802v-478.396c0-9.298 7.505-16.822 16.802-16.822h257.704c4.137 0 8.135 1.517 11.228 4.294l89.624 80.209c3.565 3.191 5.614 7.761 5.614 12.527v398.187c0 9.277-7.524 16.802-16.802 16.802zM347.368 74.426h-78.2v-71.857l-1.044-0.926h-234.5v444.733h313.743v-371.95zM221.322 181.128h-85.428c-4.865 0-8.785-3.94-8.785-8.785v-85.428c0-4.865 3.92-8.785 8.785-8.785h85.428c4.845 0 8.785 3.94 8.785 8.785v85.409c0.019 4.846-3.94 8.805-8.785 8.805zM212.557 95.68h-67.878v67.878h67.878v-67.878zM229.005 311.211v0.63c0 4.294-3.487 7.761-7.761 7.761h-85.29c-4.274 0-7.761-3.467-7.761-7.761v-85.271c0-4.314 3.487-7.781 7.761-7.781h85.31c4.274 0 7.761 3.467 7.761 7.78v30.393l-13.709-13.709c-0.512-0.512-1.221-0.768-1.812-1.221v-7.741h-69.788v69.808h69.788v-8.391l15.502 15.502zM244.999 316.254l-43.256-43.237-16.546 16.565c-4.471 4.471-11.68 4.471-16.152 0s-4.471-11.701 0-16.132l24.642-24.661c2.226-2.226 5.161-3.349 8.076-3.349 2.935 0 5.87 1.123 8.076 3.349l51.313 51.332c4.491 4.471 4.491 11.68 0 16.152-4.452 4.452-11.68 4.452-16.152-0.019zM78.357 398.077h224.258v-23.421h-224.257v23.421z" />
<glyph unicode="&#xe61d;" glyph-name="man349" data-tags="man349" d="M403.728 427.008v-328.336l53.152-45.84v374.176zM492.352 477.040h-232.144c-8.928 0-15.936-6.976-15.936-15.888v-89.648c6.256-10.032 10.144-21.952 10.144-34.72 0-12.784-3.904-24.72-10.144-34.752v-32.784c3.12 0.272 3.744 0.448 5.824 0.448 9.392 0 19.2-2.848 25.44-7.824v183.888h200.112v-415.872h-200.112v134.896c0 0-28.144-7.328-31.264-7.568v-145.28c0-8.928 7.024-16.432 15.936-16.432h232.144c8.928 0 17.696 7.52 17.696 16.432v449.2c0 8.928-8.768 15.904-17.696 15.904zM192.544 285.792c24.384 0 44.192 19.808 44.192 44.224s-19.792 44.224-44.192 44.224c-24.448 0-44.224-19.808-44.224-44.224-0.016-24.416 19.76-44.224 44.224-44.224zM156.16 190.080c14.736-10.272 32.224-15.376 52.32-15.376 10.96 0 45.6 7.52 53.888 10.176 9.296 3.216 13.984 7.696 16.784 13.184 3.472 9.28 1.824 19.024 1.824 19.024-2.8 17.376-19.728 21.312-32.944 16.544-19.648-7.056-46.448-13.072-62.624-2-6.848 4.688-11.152 12-13.84 19.104 4.048 13.312 1.44 28.336-8.224 39.712-15.152 17.824-41.856 19.968-59.664 4.832-4.352-3.648-31.52-28.176-48.4-75.888-8.224-3.76-18.144-6.736-30.064-8.144-13.92-1.648-23.888-14.288-22.288-28.208 1.552-12.912 12.512-22.448 25.216-22.448 0.992 0 1.984 0.080 2.976 0.224 4.144 0.432 8.080 1.088 11.904 1.856-0.784-8.064-1.2-16.448-1.2-25.28 0-11.408 4.576-21.792 11.952-29.408 4.816-14.944 8.736-35.568 3.408-52.512-4.016-12.64-12.784-22.288-26.832-29.44-12.496-6.368-17.456-21.664-11.104-34.16 4.496-8.768 13.392-13.888 22.656-13.888 3.872 0 7.808 0.928 11.488 2.8 26.128 13.28 44.192 33.84 52.24 59.44 6.752 21.584 5.76 43.488 2.128 62.064 1.712 1.152 3.36 2.464 4.88 3.856 17.2-20.016 34.448-53.904 24.064-104.736-2.8-13.712 6.064-27.136 19.776-29.968 1.728-0.288 3.456-0.48 5.136-0.48 11.776 0 22.384 8.272 24.848 20.272 17.472 85.472-23.52 143.040-58.336 170.4 2.384 17.664 7.264 31.792 12.464 42.592 4.352-5.088 9.488-9.904 15.568-14.144z" />
<glyph unicode="&#xe61e;" glyph-name="list61" data-tags="list61" d="M223.437 432.589h158.361c6.912 0 12.544 5.632 12.544 12.544v0.256c0 6.912-5.632 12.544-12.544 12.544h-158.362c-6.912 0-12.544-5.632-12.544-12.544v-0.256c-0.051-6.912 5.581-12.544 12.544-12.544zM210.841 397.056c0-6.912 5.632-12.544 12.544-12.544h212.992c6.912 0 12.544 5.632 12.544 12.544v0.256c0 6.912-5.632 12.544-12.544 12.544h-212.992c-6.912 0-12.544-5.632-12.544-12.544v-0.256zM210.841 349.030c0-6.912 5.632-12.544 12.544-12.544h212.992c6.912 0 12.544 5.632 12.544 12.544v0.256c0 6.912-5.632 12.544-12.544 12.544h-212.992c-6.912 0-12.544-5.632-12.544-12.544v-0.256zM210.841 276.736c0-6.912 5.632-12.544 12.544-12.544h158.362c6.912 0 12.544 5.632 12.544 12.544v0.256c0 6.912-5.632 12.544-12.544 12.544h-158.31c-6.912 0-12.544-5.632-12.544-12.544l-0.051-0.256zM210.841 228.659c0-6.912 5.632-12.544 12.544-12.544h114.432c6.912 0 12.544 5.632 12.544 12.544v0.256c0 6.912-5.632 12.544-12.544 12.544h-114.381c-6.912 0-12.544-5.632-12.544-12.544l-0.051-0.256zM210.841 180.634c0-6.912 5.632-12.544 12.544-12.544h212.992c6.912 0 12.544 5.632 12.544 12.544v0.256c0 6.912-5.632 12.544-12.544 12.544h-212.992c-6.912 0-12.544-5.632-12.544-12.544v-0.256zM210.841 98.406c0-6.759 5.478-12.185 12.185-12.185h206.797c6.759 0 12.185 5.478 12.185 12.185v0.256c0 6.759-5.478 12.185-12.185 12.185h-206.797c-6.758 0-12.185-5.478-12.185-12.185v-0.256zM210.841 51.712c0-6.759 5.478-12.185 12.185-12.185h179.353c6.759 0 12.185 5.478 12.185 12.185v0.256c0 6.759-5.478 12.185-12.185 12.185h-179.353c-6.758 0-12.185-5.478-12.185-12.185v-0.256zM210.841 5.069c0-6.759 5.478-12.185 12.185-12.185h81.869c6.759 0 12.185 5.478 12.185 12.185v0.256c0 6.759-5.478 12.185-12.185 12.185h-81.869c-6.758 0-12.185-5.478-12.185-12.185v-0.256zM70.707 389.735v-64.205h101.683v64.205c0 5.325-4.659 9.677-10.393 9.677h-11.571c-2.048 0-3.942-0.921-5.12-2.457l-17.049-22.375-4.147 8.089 6.605 12.954c0.922 1.792-0.461 3.84-2.611 3.84h-13.261c-2.099 0-3.481-2.048-2.611-3.84l6.605-12.954-4.096-7.987-16.487 22.221c-1.177 1.587-3.123 2.509-5.171 2.509h-12.135c-5.581 0-10.24-4.301-10.24-9.677zM121.549 406.579c17.152 0 31.13 13.977 31.13 31.13s-13.977 31.129-31.13 31.129-31.13-13.926-31.13-31.129c0-17.152 13.977-31.13 31.13-31.13zM70.707 157.133h101.683v64.205c0 5.325-4.659 9.677-10.393 9.677h-11.571c-2.048 0-3.942-0.922-5.12-2.458l-17.049-22.375-4.147 8.089 6.605 12.953c0.922 1.792-0.461 3.84-2.611 3.84h-13.261c-2.099 0-3.481-2.048-2.611-3.84l6.605-12.953-4.096-7.987-16.487 22.221c-1.177 1.587-3.123 2.509-5.171 2.509h-12.135c-5.734 0-10.394-4.352-10.394-9.677l0.153-64.205zM90.419 269.312c0-17.152 13.978-31.13 31.129-31.13s31.13 13.977 31.13 31.13c0 17.152-13.977 31.13-31.13 31.13s-31.13-13.927-31.13-31.13zM172.391 44.39c0 5.325-4.659 9.677-10.393 9.677h-11.571c-2.048 0-3.942-0.921-5.12-2.457l-17.049-22.375-4.147 8.089 6.605 12.954c0.922 1.792-0.461 3.84-2.611 3.84h-13.261c-2.099 0-3.481-2.048-2.611-3.84l6.605-12.954-4.096-7.987-16.487 22.221c-1.177 1.587-3.123 2.509-5.171 2.509h-12.135c-5.734 0-10.394-4.352-10.394-9.677v-64.205h101.683l0.154 64.205zM90.419 92.365c0-17.152 13.978-31.13 31.129-31.13s31.13 13.978 31.13 31.13-13.977 31.13-31.13 31.13-31.13-13.926-31.13-31.13z" />
<glyph unicode="&#xe61f;" glyph-name="hiring" data-tags="hiring" d="M219.552 364.96c0-20.006-16.218-36.224-36.224-36.224s-36.224 16.218-36.224 36.224c0 20.006 16.218 36.224 36.224 36.224s36.224-16.218 36.224-36.224zM209.136 172.128v-120.32h-178.080v370.784h178.064v-15.008c14.624-8.784 23.84-24.576 23.84-42.608 0-18-9.232-33.792-23.84-42.608v-27.152c4.576 0.976 9.168 2.368 14.304 4.224 4.272 1.52 9.472 2.352 13.088 2.352v134.944c0 7.952-5.424 14.176-13.408 14.176h-207.184c-7.952 0-15.92-6.224-15.92-14.176v-401.072c0-7.936 7.968-14.912 15.92-14.912h207.2c7.984 0 13.408 6.976 13.408 14.912v194.704c-7.296-1.84-18.256-4.208-27.392-5.664v-52.576zM94.992 113.088v293.072h-47.504v-334zM228.832 285.968c-16.096-5.76-38.064-10.704-51.296-1.648-5.648 3.856-9.152 9.84-11.36 15.664 1.712 5.744 1.984 11.904 0.64 17.808-1.216 5.264-3.632 10.352-7.36 14.72-5.76 6.816-13.584 10.72-21.696 11.792-7.328 0.912-15.408-0.464-21.776-4.256v-159.952c0.928 0.416 1.296 0.896 1.84 1.376 14.080-16.416 28.256-44.192 19.728-85.856-2.288-11.232 5.008-22.256 16.256-24.544 1.408-0.272 2.848-0.4 4.224-0.4 9.664 0 18.336 6.8 20.368 16.608 14.32 70.064-19.264 117.296-47.792 139.696 1.968 14.496 5.968 26.096 10.224 34.912 3.536-4.16 7.76-8.128 12.736-11.6 12.096-8.432 26.416-12.592 42.896-12.592 8.992 0 37.376 6.16 44.16 8.336 7.616 2.624 11.44 6.288 13.744 10.784 2.864 7.632 1.504 15.616 1.504 15.616-2.336 14.224-16.224 17.424-27.040 13.536zM372.272 221.568c-2.432 0-4.24-0.192-4.24-0.336v-12.368h3.296c5.024 0 8.16 2.544 8.16 6.448 0 4.096-2.592 6.192-7.216 6.256zM491.92 330.368h-52.432c-2.688 23.488-13.92 50.688-31.056 61.936-1.984 7.536-8.528 13.216-16.672 13.216s-14.704-5.68-16.688-13.2c-17.136-11.248-28.368-38.432-31.056-61.936h-52.432c-11.264 0-20.384-9.104-20.384-20.384v-216.8c0-11.264 9.12-20.368 20.384-20.368h200.336c11.232 0 20.384 9.104 20.384 20.368v216.784c0.016 11.264-9.088 20.384-20.384 20.384zM379.616 375.376c3.152-3.040 7.424-4.96 12.144-4.96s8.992 1.92 12.144 4.96c9.216-9.008 17.152-26.72 19.456-45.008h-63.2c2.288 18.304 10.224 36 19.456 45.008zM333.344 184.224h-10.048v18.288h-16.416v-18.288h-10.064v43.84h10.064v-16.416h16.448v16.416h10.016v-43.84zM350.704 184.224h-10.048v43.84h10.048v-43.84zM380.72 184.224c-0.768 0.928-1.76 4.848-3.072 10.272-1.184 5.6-3.088 7.088-7.168 7.088h-2.368v-17.36h-10.048v43.856c2.768 0.512 7.728 0.912 13.088 0.912 6.576 0 11.040-0.96 14.224-3.472 2.64-2.128 4.208-5.216 4.208-9.296 0-5.664-4.080-9.52-7.728-10.912v-0.224c2.736-1.232 4.624-4.288 5.76-8.352 1.344-5.008 2.576-10.736 3.424-12.56l-10.32 0.048zM404.576 184.224h-10.048v43.84h10.048v-43.84zM448.4 184.224h-10.384l-9.472 17.152c-2.608 4.752-5.552 10.48-7.696 15.664l-0.24-0.032c0.272-5.824 0.384-12.064 0.384-19.328v-13.472h-9.12v43.84h11.664l9.2-16.048c2.608-4.656 5.248-10.416 7.216-15.024h0.208c-0.672 5.52-0.896 12.112-0.896 18.72v12.336h9.136v-43.808zM492.272 186.384c-2.768-1.008-8.864-2.512-14.672-2.512-8.096 0-13.904 2.080-17.968 6-4.080 3.792-6.304 9.632-6.224 16.112 0.064 14.752 10.816 23.152 25.328 23.152 5.712 0 10.144-1.088 12.32-2.192l-2.112-8c-2.416 1.040-5.456 1.904-10.336 1.904-8.352 0-14.656-4.72-14.656-14.336 0-9.168 5.888-14.544 14.096-14.544 2.288 0 4.16 0.288 5.072 0.672v8.944h-7.312v7.296h16.448v-22.496z" />
<glyph unicode="&#xe620;" glyph-name="magnifier12" data-tags="magnifier12" d="M384 288c0 106.031-85.969 192-192 192s-192-85.969-192-192 85.969-192 192-192 192 85.969 192 192zM192 144c-79.406 0-144 64.594-144 144s64.594 144 144 144 144-64.594 144-144-64.594-144-144-144zM497.938 49.937l-117.469 117.469c-17.5-27.219-40.656-50.375-67.875-67.875l117.469-117.469c18.75-18.75 49.156-18.75 67.875 0 18.75 18.719 18.75 49.125 0 67.875z" />
<glyph unicode="&#xe621;" glyph-name="magnifier13" data-tags="magnifier13" d="M497.938 49.937l-117.469 117.469c-17.5-27.219-40.656-50.375-67.875-67.875l117.469-117.469c18.75-18.75 49.156-18.75 67.875 0 18.75 18.719 18.75 49.125 0 67.875zM384 288c0 106.031-85.969 192-192 192s-192-85.969-192-192 85.969-192 192-192 192 85.969 192 192zM192 144c-79.406 0-144 64.594-144 144s64.594 144 144 144 144-64.594 144-144-64.594-144-144-144zM80 288h32c0 44.109 35.891 80 80 80v32c-61.75 0-112-50.25-112-112z" />
<glyph unicode="&#xe622;" glyph-name="male30" data-tags="male30" d="M135.148 105.994c7.629 4.086 15.196 8.315 23.010 12.022 7.577 3.625 15.411 6.728 23.163 10.005 7.291 3.062 14.663 5.959 21.904 9.113 1.239 0.543 2.499 1.874 3.011 3.123 1.618 4.055 2.99 8.243 4.27 12.421 0.973 3.164 1.597 6.298 5.673 7.137 1.024 0.215 2.284 1.976 2.437 3.175 0.829 6.082 1.454 12.196 1.874 18.34 0.102 1.3-0.573 2.98-1.464 3.973-5.366 6-8.315 12.923-9.554 20.889-0.625 3.983-2.846 7.68-4.004 11.602-1.526 5.274-2.796 10.599-4.004 15.964-0.44 1.925-0.185 4.014-0.502 5.98-0.471 2.877-0.379 5.1 3.082 6.206 0.952 0.307 1.751 2.59 1.782 3.994 0.174 8.54 0.061 17.090 0.113 25.631 0.041 5.243-0.010 10.506 0.369 15.739 0.738 10.025 6.615 17.090 13.988 23.163 10.762 8.878 23.655 13.015 36.905 16.159 6.953 1.628 14.050 2.631 21.115 3.758 1.894 0.307 3.85 0.051 5.776 0.051 0.307-0.491 0.635-0.973 0.962-1.464-1.495-1.065-3.134-1.966-4.413-3.236-2.877-2.877-2.601-4.905 0.491-7.495 6.38-5.417 12.779-10.824 18.985-16.425 5.468-4.905 7.598-11.346 7.608-18.576 0.010-12.441 0.021-24.883 0.010-37.335-0.010-2.55-0.195-5.059 2.969-6.185 0.666-0.236 1.372-1.638 1.31-2.437-0.533-6.369-1.219-12.728-1.894-19.087-0.021-0.236-0.072-0.533-0.215-0.707-5.724-8.346-6.462-18.596-10.537-27.566-0.174-0.338-0.246-0.738-0.502-1.014-7.577-8.94-5.223-19.692-5.366-29.942-0.021-1.045 0.727-2.683 1.567-3.031 3.103-1.362 3.861-4.024 4.721-6.83 1.341-4.434 2.683-8.889 4.577-13.087 0.686-1.557 2.775-2.867 4.505-3.522 23.327-8.96 46.428-18.442 68.7-29.86 4.454-2.294 8.294-5.099 11.53-8.438v252.221c-88.781 0-177.52 0-266.24 0v-252.836c3.584 3.328 7.792 6 12.288 8.407z" />
<glyph unicode="&#xe623;" glyph-name="movie41" data-tags="movie41" d="M511.704 234.85c-0.082 1.675-0.143 3.351-0.276 5.026-0.062 1.103-0.163 2.136-0.214 3.147l-0.092 1.093c-0.409 4.996-0.868 9.43-1.42 13.568-7.295 55.436-33.113 107.735-72.692 147.325-48.366 48.345-112.618 74.99-180.978 74.99-68.391 0-132.695-26.645-181.050-74.99s-74.981-112.639-74.981-181.030c0-68.339 26.625-132.633 74.981-180.989s112.659-75.001 181.060-75.001c68.36 0 132.613 26.635 180.969 75.001 35.339 35.35 59.4 79.783 69.565 128.465 3.279 15.815 5.058 32.305 5.313 49.020l0.062 1.675c0.010 0.603 0.041 1.216 0.041 1.829-0.010 3.657-0.133 7.274-0.286 10.87zM407.994 72.701c-6.682 0-13.711 2.104-20.873 6.243-23.397 13.435-42.348 44.82-42.287 69.995 0 7.826 1.757 14.814 5.231 20.791 8.418 14.743 28.954 23.928 53.515 23.928h0.062c15.877 0.021 31.743-3.903 43.523-10.687 13.834-8.061 20.311-18.574 20.372-33.041 0-11.678-4.505-25.705-13.087-40.529-7.877-13.711-24.418-36.699-46.455-36.699zM256.062-5.202c-39.845 0.245-60.064 14.753-60.105 43.115-0.041 16.959 7.121 37.066 18.666 52.463 11.912 15.938 26.982 25.062 41.347 25.062h0.031c14.344 0.010 29.414-9.134 41.327-25.062 11.534-15.376 18.717-35.493 18.717-52.452-0.051-28.372-20.291-42.88-59.983-43.125zM57.489 109.409c-8.562 14.784-13.078 28.791-13.078 40.458 0.062 14.507 6.569 25.051 20.392 33.092 11.769 6.784 27.616 10.707 43.483 10.707h0.072c24.561 0.021 45.087-9.164 53.587-23.969 3.433-5.946 5.169-12.945 5.169-20.791 0.082-25.144-18.86-56.529-42.246-69.954-7.305-4.219-14.15-6.252-21.005-6.252-21.945 0-38.476 22.988-46.373 36.709zM103.863 375.289h0.123c6.671 0 13.701-2.084 20.883-6.242 23.386-13.425 42.318-44.79 42.246-69.974 0-7.836-1.737-14.825-5.18-20.801-8.47-14.774-28.985-23.928-53.577-23.928-15.907-0.020-31.763 3.903-43.534 10.707-13.843 8.061-20.352 18.553-20.413 33.041 0 11.719 4.547 25.726 13.108 40.509 7.897 13.701 24.418 36.688 46.343 36.688zM256 453.192c39.805-0.256 59.993-14.763 60.054-43.084 0-16.97-7.162-37.077-18.697-52.463-11.923-15.918-26.983-25.041-41.368-25.041-14.355-0.010-29.435 9.113-41.347 25.041-11.555 15.387-18.717 35.503-18.676 52.452 0.030 28.341 20.229 42.849 60.033 43.094zM408.075 375.289c21.925 0 38.497-22.998 46.414-36.708 8.541-14.774 13.067-28.781 13.046-40.469-0.041-14.477-6.529-25-20.351-33.061-11.769-6.794-27.667-10.707-43.605-10.707-24.541-0.020-45.076 9.144-53.556 23.928-3.433 5.957-5.19 12.935-5.19 20.801-0.082 25.163 18.88 56.549 42.287 69.995 7.183 4.138 14.201 6.222 20.863 6.222h0.092zM256 167.911c-30.936 0-56.089 25.154-56.089 56.089 0 30.926 25.154 56.1 56.089 56.1 30.916 0 56.070-25.174 56.070-56.1 0-30.936-25.154-56.089-56.070-56.089z" />
<glyph unicode="&#xe624;" glyph-name="refresh7" data-tags="refresh7" d="M479.552 480c-17.92 0-32.384-14.528-32.384-32.416v-75.584c-36.544 44.256-78.656 108-194.56 108-139.264 0-252.608-113.312-252.608-252.608s113.344-252.608 252.608-252.608c109.376 0 205.824 69.856 240.064 173.856 5.664 17.312-3.744 35.936-21.056 41.632-17.312 5.728-36-3.68-41.696-20.992-25.248-76.8-96.544-128.448-177.344-128.448-102.912 0-186.624 83.68-186.624 186.624s83.712 186.24 186.624 186.24c72.864 0 113.344-45.344 146.368-92.896h-81.472c-17.92 0-32.416-14.528-32.416-32.416 0-17.92 14.496-32.416 32.416-32.416h162.080c17.92-0.096 32.448 14.432 32.448 32.32v159.296c0 17.888-14.528 32.416-32.448 32.416z" />
<glyph unicode="&#xe625;" glyph-name="study" data-tags="study" d="M512 32c0-17.664-14.336-32-32-32-17.68 0-32 14.336-32 32s14.32 64 32 64c17.664 0 32-46.336 32-64zM464 272v-144c0-8.848 7.152-16 16-16 8.832 0 16 7.152 16 16v144c0 8.848-7.168 16-16 16-8.848 0-16-7.152-16-16zM474.784 305.216l-42.784-9.872v-135.344c0-42.464-48.608-80-176-80s-176 37.536-176 80v135.344l-42.8 9.872c-21.888 5.056-37.2 24.288-37.2 46.784s15.296 41.728 37.216 46.784l207.984 48c3.712 0.832 7.264 1.216 10.8 1.216s7.088-0.384 10.576-1.168l208.208-48.048c21.904-5.056 37.216-24.288 37.216-46.784s-15.312-41.728-37.216-46.784zM400 287.952l-133.216-30.736c-3.68-0.832-7.248-1.216-10.784-1.216s-7.104 0.384-10.592 1.168l-133.408 30.784v-127.952c0-17.68 48-48 144-48s144 30.32 144 48v127.952zM467.6 336.4c7.248 1.68 12.4 8.144 12.4 15.6s-5.152 13.92-12.4 15.6l-208 48-3.6 0.4-3.6-0.4-208-48c-7.264-1.68-12.4-8.144-12.4-15.6s5.136-13.92 12.4-15.6l208-48 3.6-0.4 3.6 0.4 208 48z" />
<glyph unicode="&#xe626;" glyph-name="wheel1" data-tags="wheel1" d="M510.4 195.84c0.96 9.216 1.6 18.624 1.6 28.16s-0.64 18.944-1.632 28.192l-69.952 24.896c-4.064 14.016-9.568 27.36-16.512 39.872l31.808 66.912c-11.808 14.72-25.184 28.096-39.904 39.904l-66.976-31.808c-12.448 6.912-25.824 12.416-39.808 16.448l-24.832 69.952c-9.248 1.024-18.656 1.632-28.192 1.632s-18.944-0.608-28.192-1.632l-24.896-69.952c-13.984-4.032-27.36-9.536-39.84-16.448l-66.944 31.808c-14.72-11.808-28.096-25.184-39.904-39.904l31.808-66.912c-6.912-12.48-12.416-25.856-16.448-39.872l-69.952-24.896c-1.024-9.248-1.632-18.656-1.632-28.192s0.608-18.944 1.632-28.192l69.984-24.896c4.032-14.016 9.504-27.328 16.448-39.84l-31.808-66.944c11.808-14.72 25.184-28.128 39.904-39.904l66.912 31.808c12.48-6.912 25.856-12.416 39.872-16.48l24.896-69.952c9.216-0.96 18.624-1.6 28.16-1.6s18.944 0.64 28.192 1.632l24.896 70.016c14.016 4.032 27.328 9.504 39.84 16.448l66.944-31.808c14.72 11.808 28.128 25.184 39.904 39.904l-31.808 66.944c6.912 12.512 12.416 25.888 16.48 39.84l69.952 24.864zM256 96c-70.688 0-128 57.312-128 128s57.312 128 128 128 128-57.312 128-128-57.312-128-128-128zM320 224c0-35.346-28.654-64-64-64s-64 28.654-64 64c0 35.346 28.654 64 64 64s64-28.654 64-64z" />
<glyph unicode="&#xe627;" glyph-name="arrow" data-tags="arrow" horiz-adv-x="495" d="M426.505 153.713v-116.954h-357.763v116.954h-68.742v-151.334c0-18.974 15.371-34.362 34.431-34.362h426.402c19.043 0 34.43 15.371 34.43 34.362v151.333h-68.759zM241.338 165.31l-98.441 118.952c0 0-14.978 14.141 1.264 14.141s55.471 0 55.471 0 0 9.513 0 24.183c0 41.826 0 117.945 0 148.977 0 0-2.203 8.437 10.504 8.437 12.809 0 68.912 0 78.083 0 9.154 0 8.949-7.104 8.949-7.104 0-30.093 0-108.842 0-149.301 0-13.117 0-21.622 0-21.622s31.459 0 51.202 0c19.709 0 4.868-14.807 4.868-14.807s-83.753-111.182-95.435-122.847c-8.42-8.454-16.464 0.99-16.464 0.99z" />
<glyph unicode="&#xe628;" glyph-name="arrow487" data-tags="arrow487" d="M357.099 205.077l-164.352-164.347c-10.455-10.455-27.402-10.455-37.852 0-10.45 10.45-10.45 27.402 0 37.852l145.423 145.418-145.418 145.418c-10.45 10.455-10.45 27.402 0 37.852 10.45 10.455 27.397 10.455 37.852 0l164.352-164.347c5.223-5.227 7.834-12.073 7.834-18.923s-2.616-13.701-7.839-18.923z" />
<glyph unicode="&#xe629;" glyph-name="cruise9" data-tags="cruise9" d="M407.724 10.742c2.539 3.257 0.937 7.329-3.226 7.785-13.921 1.526-25.5-3.884-35.353-12.152 9.401 23.506 22.188 46.067 33.756 68.439 6.065 11.725 22.543 36.078 14.882 49.575-1.142 2.012-3.038 2.637-4.823 2.286-29.921 16.96-60.17 34.243-90.378 50.719-23.163 12.634-49.408 30.71-75.832 34.964-20.114 3.238-44.239-17.618-58.9-28.078-28.638-20.437-59.843-43.812-93.284-55.171-3.609-1.226-4.483-4.541-3.515-7.199-0.118-0.773-0.090-1.59 0.225-2.455 14.651-40.243 32.189-80.965 56.269-116.521-0.174-0.336-0.394-0.637-0.563-0.973-13.86 7.207-26.709 12.158-42.773 13.983-5.13 0.584-7.043-6.366-3.963-9.564 6.239-5.993 11.758-12.606 16.553-19.843 1.352-2.194 4.613-0.738 4.070 1.715-1.213 5.486-2.865 9.759-5.025 13.909 10.724-2.983 20.667-7.572 30.753-13.23 3.591-2.014 7.237-0.007 8.643 3.515 8.374 21.010 27.131 36.636 48.016 44.546-6.827-34.534 38.677-39.78 54.681-8.363 14.041-8.207 22.974-17.423 23.695-38.249 0.051-1.485 0.625-2.594 1.382-3.492-0.041-1.139 0.853-2.317 2.222-1.925 0.125 0.036 0.24 0.079 0.366 0.115 2.457-0.786 5.322-0.028 6.753 2.166 11.83 4.204 21.42 10.363 26.411 21.691 12.795-7.783 24.072-17.111 35.115-27.433 3.111-2.908 7.283-1.989 9.651 1.244 8.909 12.152 18.796 20.475 32.197 24.579-3.372-9.91 0.292-19.172 13.166-22.541 3.589-0.94 6.945 3.917 3.817 6.558-6.902 3.925-8.566 10.391-4.99 19.399zM357.548-5.010c-11.725 11.226-24.015 20.385-39.038 27.599-3.026 1.454-7.867 0.51-8.499-3.459-1.861-11.712-8.461-18.862-17.019-24.914-1.608 23.291-14.19 37.458-35.005 48.778-3.65 1.986-8.034 0.197-9.262-3.769-6.817-22.016-45.243-29.954-30.251 4.24 2.125 4.844-1.305 10.673-7.063 9.188-23.488-6.067-44.633-20.421-58.222-40.315-18.125 35.221-33.705 71.229-49.4 107.589 50.437 13.2 86.444 58.473 134.582 76.782 19.52 7.424 69.775-27.92 87.844-36.749 27.284-13.337 52.623-30.149 80.336-42.591-7.068-17.945-14.334-35.495-22.743-53.154-9.882-20.762-27.166-45.307-26.258-69.228zM357.635 263.887c-39.834 1.237-80.13-0.904-119.923-2.68-35.761-1.597-71.665 0.489-107.144-4.962-3.73-0.573-5.322-4.962-4.641-8.172 5.409-25.5 14.485-50.475 22.8-75.172 0.996-2.962 5.274-2.425 5.417 0.732 0.655 14.61-1.851 25.398-5.806 39.7-6.095 22.039-11.3 31.834 16.896 32.505 37.906 0.901 75.822 0.24 113.784 1.359 32.85 0.968 65.817 1.446 98.67 1.751-17.423-0.161-32.123-50.153-30.73-64.428 0.591-6.067 10.219-8.502 11.459-1.551 2.901 16.302 9.981 29.883 17.577 44.332 3.533 6.72 12.423 13.881 11.714 22.538-1.433 17.411-14.825 13.573-30.072 14.047zM284.339 288.745c0.568 0.289 1.147 0.543 1.695 0.886 3.151 1.982 2.675 6.915-1.039 7.946-0.302 0.084-0.61 0.118-0.911 0.19 0.043 5.435 0.248 10.901 0.289 16.484 0.015 2.053-1.538 4.554-3.722 4.887-8.584 1.316-17.707 0.166-26.294-0.61-9.131-0.825-20.81-1.054-29.171-5.245-13.018-6.525-1.031-39.516 6.124-47.024 1.529-1.602 4.081-0.325 4.165 1.726 0.24 5.898-1.098 11.568-2.355 17.318 8.945-0.143 17.91-0.094 26.852 0.151 3.935 0.107 8.082 0.020 12.15 0.304 0.284-5.909 1.59-11.497 5.248-16.082 3.507-4.395 10.038 0.407 8.863 5.159-1.154 4.672-1.625 9.293-1.892 13.911zM231.792 292.38c-0.456 2.852-0.827 5.716-0.999 8.601-0.243 4.076-1.833 2.506 2.048 3.495 12.613 3.207 27.538 4.861 41.050 4.743-0.338-3.538-0.839-7.273-1.247-11.044-4.231-0.468-8.484-1.346-12.669-1.808-9.434-1.037-18.89-2.030-28.183-3.988zM281.091 367.78c-5.637 5.525-13.691 7.050-21.44 6.055 2.739 9.895 0.586 20.304-8.307 28.242-6.776 6.049-14.756 7.019-21.811 4.557 1.078 15.237-6.439 32.123-15.314 43.292-16.399 20.639-45.148 27.938-67.906 13.937-25.498-15.683-33.651-87.084 2.266-84.549-9.398-15.175-4.416-34.834 13.317-43.118 8.758-4.091 26.778-6.252 35.559 0.773 2.691-3.641 6.733-6.631 10.844-8.269 7.898-3.149 16.699-1.362 23.037 3.599 3.635-6.469 11.82-9.428 20.611-6.29 3.126 1.116 2.468 5.317-0.761 5.625-7.225 0.688-13.916 1.679-12.769 10.745 0.643 5.089-7.524 5.939-8.775 1.188-1.976-7.493-11.041-7.734-17.144-6.108-8.077 2.151-7.952 7.010-8.351 13.993-0.174 3.041-4.109 5.291-6.428 2.662-1.951-2.214-2.957-4.506-3.292-6.776-6.771-6.206-18.768-4.47-26.544-0.901-5.12 2.35-10.329 6.329-12.4 11.738-3.179 8.302 2.173 16.709 5.694 23.931 1.925 3.95-2.522 7.618-5.931 5.017-15.767 1.7-21.071 11.73-20.359 27.807 0.591 13.312 6.659 29.931 17.917 37.839 16.63 11.681 36.953 2.959 49.584-9.981 15.864-16.254 13.954-34.125 7.498-53.663-1.754-5.305 5.020-8.213 8.686-5.056 4.621 3.981 7.554 8.717 9.26 13.832 5.209 2.186 10.782 1.925 16.387-2.949 8.42-7.322 6.856-19.072 0.254-26.8-4.030-4.718 1.063-12.286 6.843-8.868 5.926 3.502 12.546 4.549 19.015 1.758 8.149-3.515 3.397-10.071 0.094-15.207-2.627-4.086 2.752-9.912 6.892-6.891 10.012 7.298 13.274 19.535 3.779 28.838z" />
<glyph unicode="&#xe62a;" glyph-name="edit1" data-tags="edit1" d="M177.231 243.692h196.923v-39.385h-196.923v39.385zM256.197 46.769h-197.12c-10.85 0-19.692 8.842-19.692 19.692v334.769h393.846v-166.105c8.152 3.998 17.073 6.341 26.447 6.341 4.411 0 8.724-0.552 12.938-1.477v180.933c0 32.63-26.466 59.077-59.077 59.077h-354.462c-32.611 0-59.077-26.447-59.077-59.077v-354.462c0-32.611 26.466-59.077 59.077-59.077h185.6l11.52 39.385zM177.231 322.462h196.923v-39.385h-196.923v39.385zM177.231 125.538h139.736l39.582 39.385h-179.318zM98.462 243.692h39.385v-39.385h-39.385v39.385zM98.462 322.462h39.385v-39.385h-39.385v39.385zM98.462 164.923h39.385v-39.385h-39.385v39.385zM503.414 166.223l-29.873 29.933c-8.231 8.291-21.543 8.349-29.676 0.177l-24.024-24.182 59.668-59.923 24.044 24.202c8.173 8.173 8.113 21.524-0.138 29.795zM302.178 56.576c-1.32-1.083-2.442-2.422-2.954-4.195l-20.815-71.188c-0.925-3.091-0.059-6.44 2.205-8.724 1.693-1.674 3.938-2.579 6.243-2.579 0.827 0 1.674 0.118 2.481 0.374l70.932 20.913c1.654 0.473 2.934 1.497 4.017 2.717l97.26 96.787-62.287 62.523-97.083-96.63zM311.611-4.785l-8.31 8.369 11.796 40.31 30.168-6.223 5.967-30.76-39.621-11.697z" />
<glyph unicode="&#xe62b;" glyph-name="edit22" data-tags="edit22" d="M20.934 229.331c0 132.626 107.395 240.021 240.021 240.021 132.57 0 239.968-107.395 240.021-240.021-0.053-132.57-107.448-239.968-240.021-240.021-132.626 0.053-240.021 107.448-240.021 240.021zM77.366 229.331c0.212-101.314 82.22-183.322 183.59-183.562 101.314 0.24 183.322 82.248 183.562 183.562-0.24 101.37-82.248 183.375-183.562 183.615-101.37-0.24-183.375-82.248-183.59-183.615zM234.285 122.656h-80.007v80.007l80.007-80.007zM394.299 282.667l-133.346-133.346-80.007 80.035 133.346 133.346 80.007-80.035z" />
<glyph unicode="&#xe62c;" glyph-name="edit26" data-tags="edit26" d="M466.913 274.401l-24.94-24.945-69.488 69.483 24.945 24.945c7.859 7.859 19.676 8.832 26.343 2.171l45.312-45.317c6.661-6.661 5.688-18.478-2.171-26.338zM360.904 307.364l69.488-69.489-165.699-165.698c-0.763-0.763-2.873-2.867-5.832-3.625-0.343-0.164-0.691-0.302-1.039-0.414l-86.477-27.556c-2.422-0.768-4.854-0.276-6.43 1.305-1.582 1.582-2.073 4.014-1.316 6.43l27.561 86.466c0.118 0.358 0.256 0.707 0.415 1.039 0.758 2.964 2.862 5.069 3.63 5.832l31.14 31.145h-105.175c-4.24 0-7.68 3.435-7.68 7.68s3.441 7.68 7.68 7.68h120.535l119.199 119.204zM243.318 77.517l-42.778 42.772-11.474-36.024 18.233-18.233 36.019 11.484zM358.231 279.746c-2.457 2.463-6.446 2.463-8.904 0l-129.178-129.173c-2.458-2.457-2.458-6.446 0-8.909 2.458-2.457 6.451-2.457 8.909 0l129.173 129.173c2.462 2.462 2.462 6.451 0 8.909zM350.428 33.833c0-4.618-3.753-8.377-8.371-8.377h-152.423l-13.768-4.388c-2.765-0.88-5.607-1.326-8.453-1.326-6.057 0-11.689 2.079-16.297 5.714h-79.124c-4.618 0-8.382 3.753-8.382 8.377v351.724c0 4.618 3.758 8.376 8.382 8.376h31.401v-13.261c0-4.624 3.748-8.371 8.376-8.371s8.376 3.748 8.376 8.371v13.261h48.148v-13.261c0-4.624 3.748-8.371 8.376-8.371s8.376 3.748 8.376 8.371v13.261h41.871v-13.261c0-4.624 3.748-8.371 8.376-8.371s8.376 3.748 8.376 8.371v13.261h46.059v-13.261c0-4.624 3.748-8.371 8.371-8.371 4.628 0 8.382 3.748 8.382 8.371v13.261h35.589c4.613 0 8.371-3.758 8.371-8.376v-58.005l25.124 25.124v32.88c0 18.468-15.027 33.495-33.495 33.495h-35.589v20.239c0 4.624-3.748 8.377-8.382 8.377-4.618 0-8.371-3.748-8.371-8.377v-20.239h-46.070v20.239c0 4.624-3.748 8.377-8.376 8.377s-8.376-3.748-8.376-8.377v-20.239h-41.871v20.239c0 4.624-3.748 8.377-8.376 8.377s-8.376-3.748-8.376-8.377v-20.239h-48.148v20.239c0 4.624-3.748 8.377-8.377 8.377s-8.376-3.748-8.376-8.377v-20.239h-31.401c-18.468 0-33.5-15.027-33.5-33.495v-351.719c0-18.468 15.032-33.495 33.5-33.495h270.070c18.468 0 33.495 15.027 33.495 33.495v121.938l-25.124-25.129v-96.814zM285.010 318.72h-163.84c-4.239 0-7.68-3.436-7.68-7.68s3.441-7.68 7.68-7.68h163.84c4.24 0 7.68 3.435 7.68 7.68s-3.44 7.68-7.68 7.68zM285.010 256.798h-163.84c-4.239 0-7.68-3.435-7.68-7.68s3.441-7.68 7.68-7.68h163.84c4.24 0 7.68 3.435 7.68 7.68s-3.44 7.68-7.68 7.68z" />
<glyph unicode="&#xe62d;" glyph-name="edit37" data-tags="edit37" d="M494.714 431.226l-31.478 31.472c-19.168 19.178-50.235 19.173-69.403 0l-12.139-12.134 100.885-100.88 12.134 12.138c19.168 19.174 19.163 50.235 0 69.403zM357.099 425.978l-279.899-279.899 100.885-100.875 281.637 281.632-100.88 100.87zM2.912-29.088l153.243 49.589-103.653 103.648-49.59-153.238zM119.594 29.296l-49.686-16.315-24.746 24.72 16.139 49.888 58.294-58.293z" />
<glyph unicode="&#xe62e;" glyph-name="edit45" data-tags="edit45" d="M316.313 375.859l90.010-90.010-227.84-227.84-89.959 90.010 227.789 227.84zM474.624 397.568l-40.141 40.141c-15.514 15.513-40.704 15.513-56.269 0l-38.451-38.451 90.010-90.010 44.851 44.851c12.032 12.032 12.032 31.437 0 43.469zM41.421 21.504c-1.639-7.373 5.017-13.978 12.39-12.185l100.301 24.32-89.959 90.010-22.733-102.144z" />
<glyph unicode="&#xe62f;" glyph-name="present3" data-tags="present3" horiz-adv-x="511" d="M288.897 398.302l-6.217 19.679c-2.466 7.836-5.858 15.492-10.096 22.711-14.002 23.79-30.315 34.118-36.61 34.735-2.338-5.010-1.978-24.201 12.537-48.891 13.822-23.533 29.931-33.861 36.405-34.709 0 0 3.982 6.474 3.982 6.474zM352.046 426.536c14.49 24.689 14.849 43.88 12.538 48.891-6.295-0.591-22.659-10.893-36.661-34.735-4.264-7.245-7.63-14.901-10.096-22.711l-6.295-19.936 4.188-6.474c5.961 0.796 22.3 11.098 36.327 34.965zM291.672 379.111h51.896v-72.398h126.093v71.602h-118.411c9.557 7.013 19.269 17.933 27.259 31.471 17.213 29.339 19.731 59.809 5.575 68.108-2.44 1.413-5.19 2.106-8.17 2.106-14.413 0-34.298-15.851-48.633-40.13-4.779-8.195-8.324-16.416-10.791-24.278-2.466 7.862-5.961 16.083-10.791 24.278-14.259 24.278-34.221 40.13-48.659 40.13-2.903 0-5.678-0.693-8.144-2.106-14.079-8.298-11.561-38.768 5.626-68.108 7.99-13.54 17.753-24.458 27.284-31.471h-118.436v-71.601h128.302c0 0 0 72.398 0 72.398zM332.599 410.505c2.235 7.142 5.344 14.13 9.223 20.81 12.794 21.812 27.798 31.24 33.63 31.78 2.055-4.548 1.747-22.146-11.484-44.728-12.897-21.889-27.849-31.292-33.27-32.011l-3.853 5.909c0 0 5.755 18.241 5.755 18.241zM269.089 418.367c-13.256 22.582-13.617 40.181-11.459 44.728 5.755-0.54 20.733-9.994 33.553-31.78 3.905-6.603 6.962-13.59 9.274-20.81l5.652-18.010-3.648-5.909c-5.961 0.745-20.681 10.225-33.373 31.78zM347.859 283.822v-80.825c9.351-4.727 11.947-13.257 11.947-13.257s1.85 0.873 1.85-37.998c0-38.897-8.324-40.284-13.796-41.517v-21.169c0 0 63.252 20.45 100.915 68.082 13.668 17.29 21.118 12.974 21.118 12.974l-0.257 113.709c0 0-121.776 0-121.776 0zM291.672 283.822h-128.327v-66.078c31.060 0 88.070 0 128.302 0v66.078h0.026zM0 216.305h73.349v-248.254h-73.349v248.254zM463.11 136.277c-2.903 1.13-5.909 1.567-8.966 1.053-23.045-4.239-57.933-89.945-148.726-65.204 0 0-26.565 8.581-36.61 14.747-8.889 4.907-27.746 16.134-43.161 27.849h91.692c0 0 3.751-0.231 8.092 0.745 5.935 1.361 13.051 4.984 13.051 14.798 0 16.956 0 42.313 0 42.313s-2.826 14.079-13.051 19.243c-2.338 1.182-4.984 1.927-8.092 1.927-4.779 0-23.738 0-48.531 0-43.958 0-106.181 0-140.094 0-14.927 0-24.381 0-24.381 0v-180.507c0 0 143.922-45.165 194.688-45.165 0 0 126.889-5.652 211.542 93.105 0.026-0.026-22.043 65.23-47.452 75.096z" />
<glyph unicode="&#xe630;" glyph-name="store" data-tags="store, purchase, buy, ecommerce" d="M480 32h-32v64c0 17.672-14.312 32-32 32s-32-14.328-32-32v-64h-256v64c0 17.672-14.312 32-32 32s-32-14.328-32-32v-64h-32c-17.688 0-32-14.328-32-32s14.312-32 32-32h448c17.688 0 32 14.328 32 32s-14.312 32-32 32zM480 480h-448c-17.688 0-32-14.328-32-32v-192c0-35.344 28.656-64 64-64s64 28.656 64 64c0-35.344 28.656-64 64-64s64 28.656 64 64c0-35.344 28.656-64 64-64s64 28.656 64 64c0-35.344 28.656-64 64-64s64 28.656 64 64v192c0 17.672-14.312 32-32 32z" />
<glyph unicode="&#xe631;" glyph-name="out" data-tags="out, upload, load, outbox" d="M480 256c-17.688 0-32-14.328-32-32v-192h-384v192c0 17.672-14.312 32-32 32s-32-14.328-32-32v-224c0-17.672 14.312-32 32-32h448c17.688 0 32 14.328 32 32v224c0 17.672-14.312 32-32 32zM224 160c0-17.672 14.312-32 32-32s32 14.328 32 32v192h96l-128 128-128-128h96v-192z" />
<glyph unicode="&#xe632;" glyph-name="in" data-tags="in, download, store, save, inbox" d="M480 256c-17.688 0-32-14.328-32-32v-192h-384v192c0 17.672-14.312 32-32 32s-32-14.328-32-32v-224c0-17.672 14.312-32 32-32h448c17.688 0 32 14.328 32 32v224c0 17.672-14.312 32-32 32zM288 256v195.909c0 15.513-14.312 28.091-32 28.091s-32-12.578-32-28.091v-195.909h-96l128-128 128 128h-96z" />
<glyph unicode="&#xe633;" glyph-name="in-alt" data-tags="in-alt, right, enter, sign in, login" d="M480 480h-224c-17.688 0-32-14.328-32-32s14.312-32 32-32h192v-384h-192c-17.688 0-32-14.328-32-32s14.312-32 32-32h224c17.688 0 32 14.328 32 32v448c0 17.672-14.312 32-32 32zM224 96l128 128-128 128v-96h-195.409c-15.803 0-28.591-14.328-28.591-32s12.788-32 28.591-32h195.409v-96z" />
<glyph unicode="&#xe634;" glyph-name="home" data-tags="home, house, building" d="M502.688 281.516l-189.109 189.093c-7.217 7.248-16.901 10.044-26.368 9.263h-62.422c-9.466 0.781-19.151-2.015-26.368-9.263l-38.396-38.397v47.66h-95.976v-143.636l-54.737-54.72c-7.248-7.248-10.028-16.917-9.247-26.368v-63.202c0-17.668 14.309-31.993 31.991-31.993h31.992v-159.959c0-17.668 14.309-31.992 31.992-31.992h319.92c17.683 0 31.992 14.324 31.992 31.992v159.958h31.991c17.684 0 31.992 14.325 31.992 31.993v63.202c0.782 9.452-1.998 19.121-9.247 26.369zM447.952 223.937h-63.984v-191.951h-63.983v127.966h-127.968v-127.967h-63.984v191.952h-63.984v17.746l174.206 174.206h35.491l174.206-174.206v-17.746z" />
<glyph unicode="&#xe635;" glyph-name="lightbulb" data-tags="light bulb, idea, bulb" d="M272 480h-32c-97.219 0-176-78.797-176-176 0-68.398 39.009-127.682 96-156.812v-19.188c0-17.672 14.312-32 32-32h128c17.688 0 32 14.328 32 32v19.195c56.982 29.133 96 88.412 96 156.805 0 97.203-78.812 176-176 176zM288 193.143v-33.143h-64v33.143c-54.267 7.766-96 54.433-96 110.857 0 61.859 50.156 112 112 112h32c61.844 0 112-50.141 112-112 0-56.425-41.733-103.092-96-110.857zM208 64h96c8.844 0 16-7.172 16-16s-7.156-16-16-16h-96c-8.844 0-16 7.172-16 16s7.156 16 16 16zM240 0h32c8.844 0 16-7.172 16-16s-7.156-16-16-16h-32c-8.844 0-16 7.172-16 16s7.156 16 16 16z" />
<glyph unicode="&#xe636;" glyph-name="anchor" data-tags="anchor, link" d="M472.934 71.086c-47.063-63.764-128.998-103.825-216.934-103.075-87.936-0.75-169.872 39.312-216.934 103.075l-39.061-39.077v127.997h127.997l-35.187-35.17c28.219-46.719 75.437-80.296 131.185-89.812v193.513c-55.123 14.265-95.998 63.889-95.998 123.466 0 70.685 57.312 127.997 127.998 127.997s127.998-57.312 127.998-127.998c0-59.577-40.875-109.201-95.998-123.466v-193.512c55.748 9.516 102.967 43.093 131.184 89.812l-35.186 35.17h127.996v-127.997l-39.060 39.077zM319.998 352.002c0 35.343-28.654 63.999-63.998 63.999s-63.999-28.656-63.999-63.999c0-35.343 28.655-63.999 63.999-63.999 35.344 0.001 63.998 28.657 63.998 63.999z" />
<glyph unicode="&#xe637;" glyph-name="feather" data-tags="feather, quill, write, blog" d="M433.206 437.378c-17.889 9.862-67.2 34.145-99.369 40.817-33.414 6.938-83.13-123.527-98.935-124.103-25.635-0.917-3.111 89.072 21.249 125.908-38.019-25.387-105.561-59.47-121.365-98.67-30.552-75.756 56.622-212.086 10.111-219.926-14.498-2.442-54.663 94.019-65.085 123.449-29.463-56.312-7.28-109.029 17.080-174.893v-4.090c-0.934-3.562-1.742-6.97-2.583-10.438h2.583v-95.574c0-17.609 14.249-31.858 31.857-31.858 17.609 0 31.858 14.249 31.858 31.858v96.585c59.454 6.689 87.423-12.802 128.147 64.416-24.857-10.281-74.48 21.047-64.183 35.841 20.689 29.773 105.281-1.681 159.197 89.834-85.339-22.742-95.419 9.862-96.228 21.747-1.711 24.608 85.308 11.573 124.975 45.78 22.994 19.834 50.558 66.828 20.691 83.317z" />
<glyph unicode="&#xe638;" glyph-name="expand" data-tags="expand, maximize, fullscreen, arrows" d="M178.375 192.188l-105.281-105.282-41.094 41.094c-17.688 0-32-14.312-32-32v-96c0-17.688 14.312-32 32-32h96c17.688 0 32 14.312 32 32l-41.094 41.062 105.281 105.312-45.812 45.814zM480 480h-96c-17.688 0-32-14.328-32-32l41.094-41.094-105.282-105.281 45.812-45.812 105.281 105.266 41.095-41.079c17.688 0 32 14.312 32 32v96c0 17.672-14.312 32-32 32zM480 128l-41.094-41.094-105.281 105.282-45.812-45.812 105.281-105.312-41.094-41.064c0-17.688 14.312-32 32-32h96c17.688 0 32 14.312 32 32v96c0 17.688-14.312 32-32 32zM160 448c0 17.672-14.312 32-32 32h-96c-17.688 0-32-14.328-32-32v-96c0-17.688 14.312-32 32-32l41.094 41.078 105.281-105.266 45.812 45.812-105.281 105.282 41.094 41.094z" />
<glyph unicode="&#xe639;" glyph-name="maximize" data-tags="maximize, resize, arrows, expand" d="M480 320l-41.094 41.078-105.281-105.266-45.812 45.812 105.281 105.282-41.094 41.094c0 17.672 14.312 32 32 32h96c17.688 0 32-14.328 32-32v-96c0-17.688-14.312-32-32-32zM160 0c0-17.688-14.312-32-32-32h-96c-17.688 0-32 14.312-32 32v96c0 17.688 14.312 32 32 32l41.094-41.094 105.281 105.281 45.812-45.812-105.281-105.313 41.094-41.062z" />
<glyph unicode="&#xe63a;" glyph-name="search" data-tags="search, find, lookup, magnifier" d="M497.914-17.913c-18.783-18.782-49.225-18.782-68.008 0l-84.863 84.863c-34.888-22.382-76.13-35.717-120.659-35.717-123.915 0-224.384 100.454-224.384 224.384s100.469 224.383 224.384 224.383c123.931 0 224.384-100.452 224.384-224.383 0-44.514-13.352-85.771-35.718-120.676l84.864-84.863c18.781-18.782 18.781-49.209 0-67.991zM224.384 415.891c-88.511 0-160.274-71.747-160.274-160.273s71.763-160.274 160.274-160.274c88.526 0 160.274 71.748 160.274 160.274s-71.748 160.273-160.274 160.273z" />
<glyph unicode="&#xe63b;" glyph-name="zoomin" data-tags="zoom in, magnifier, enlarge" d="M497.914-17.914c-18.783-18.781-49.226-18.781-68.008 0l-84.863 84.864c-34.889-22.366-76.131-35.718-120.66-35.718-123.915 0-224.383 100.454-224.383 224.384s100.468 224.384 224.383 224.384c123.931 0 224.384-100.453 224.384-224.384 0-44.529-13.352-85.771-35.718-120.675l84.864-84.848c18.782-18.782 18.782-49.224 0.001-68.007zM224.383 415.89c-88.511 0-160.274-71.763-160.274-160.274 0-88.526 71.763-160.274 160.274-160.274 88.527 0 160.274 71.748 160.274 160.274 0 88.511-71.747 160.274-160.274 160.274zM256.438 159.452h-64.109v64.109h-64.109v64.109h64.109v64.11h64.109v-64.11h64.11v-64.109h-64.11v-64.109z" />
<glyph unicode="&#xe63c;" glyph-name="zoomout" data-tags="zoom out, magnifier" d="M497.914 50.094l-84.864 84.848c22.366 34.903 35.718 76.146 35.718 120.675 0 123.93-100.454 224.383-224.385 224.383-123.915 0-224.383-100.453-224.383-224.384s100.468-224.384 224.383-224.384c44.529 0 85.771 13.352 120.66 35.718l84.863-84.864c18.782-18.781 49.225-18.781 68.008 0 18.781 18.783 18.781 49.225 0 68.008zM224.383 95.342c-88.511 0-160.274 71.748-160.274 160.274 0 88.511 71.763 160.274 160.274 160.274 88.527 0 160.274-71.763 160.274-160.274 0-88.526-71.747-160.274-160.274-160.274zM128.219 223.562h192.329v64.109h-192.329v-64.109z" />
<glyph unicode="&#xe63d;" glyph-name="add" data-tags="add, plus, sum" d="M256-32c-141.375 0-256 114.609-256 256s114.625 256 256 256c141.391 0 256-114.609 256-256s-114.609-256-256-256zM256 416c-106.031 0-192-85.969-192-192s85.969-192 192-192c106.047 0 192 85.969 192 192s-85.953 192-192 192zM288 96h-64v96h-96v64h96v96h64v-96h96v-64h-96v-96z" />
<glyph unicode="&#xe63e;" glyph-name="subtract" data-tags="subtract, remove, delete, minus" d="M256 480c-141.375 0-256-114.625-256-256 0-141.391 114.625-256 256-256 141.391 0 256 114.609 256 256 0 141.375-114.609 256-256 256zM256 32c-106.031 0-192 85.969-192 192s85.969 192 192 192c106.047 0 192-85.969 192-192s-85.953-192-192-192zM128 192h256v64h-256v-64z" />
<glyph unicode="&#xe63f;" glyph-name="exclamation" data-tags="exclamation, warning, notification, notice" d="M256-32c-141.375 0-256 114.609-256 256 0 141.375 114.625 256 256 256s256-114.625 256-256c0-141.391-114.625-256-256-256zM256 416c-106.031 0-192-85.969-192-192s85.969-192 192-192 192 85.969 192 192-85.969 192-192 192zM224 160h64v-64h-64v64zM224 352h64v-160h-64v160z" />
<glyph unicode="&#xe640;" glyph-name="question" data-tags="question, help, support" d="M256-32c-141.375 0-256 114.609-256 256 0 141.375 114.625 256 256 256s256-114.625 256-256c0-141.391-114.625-256-256-256zM256 416c-106.031 0-192-85.969-192-192s85.969-192 192-192 192 85.969 192 192-85.969 192-192 192zM256 352c-53.031 0-96-42.984-96-96h64c0 17.672 14.312 32 32 32s32-14.328 32-32-14.312-32-32-32c-1.225 0-5.108 0-16 0-8.844 0-16-7.172-16-16v-48h64v5.875c37.188 13.219 64 48.391 64 90.125 0 53.016-42.969 96-96 96zM256 128h-32v-32h64v32z" />
<glyph unicode="&#xe641;" glyph-name="close" data-tags="close, remove, cancel" d="M74.966 42.987c-99.97 99.97-99.97 262.066 0 362.037 100.002 99.97 262.067 99.97 362.068 0 99.97-99.971 99.97-262.067 0-362.037-100.001-99.985-262.066-99.985-362.068 0zM391.783 359.773c-75.001 74.985-196.565 74.985-271.535 0-75.001-74.985-75.001-196.55 0-271.535 74.97-74.986 196.534-74.986 271.535 0 74.971 74.986 74.971 196.55 0 271.535zM188.124 110.863l-45.251 45.266 67.876 67.877-67.876 67.876 45.251 45.267 67.876-67.892 67.877 67.892 45.25-45.267-67.876-67.876 67.876-67.877-45.25-45.266-67.877 67.892-67.876-67.892z" />
<glyph unicode="&#xe642;" glyph-name="cmd" data-tags="cmd, command" d="M400 192c-17.25 0-33.406-4.219-48-11.188v86.375c14.594-6.968 30.75-11.187 48-11.187 61.844 0 112 50.141 112 112s-50.156 112-112 112-112-50.141-112-112v-48h-64v48c0 61.859-50.156 112-112 112s-112-50.141-112-112 50.156-112 112-112c17.25 0 33.406 4.219 48 11.188v-86.375c-14.594 6.968-30.75 11.187-48 11.187-61.844 0-112-50.141-112-112s50.156-112 112-112 112 50.141 112 112v48h64v-48c0-61.859 50.156-112 112-112s112 50.141 112 112-50.156 112-112 112zM400 416c26.5 0 48-21.484 48-48s-21.5-48-48-48-48 21.484-48 48 21.5 48 48 48zM112 32c-26.5 0-48 21.484-48 48s21.5 48 48 48 48-21.484 48-48-21.5-48-48-48zM112 320c-26.5 0-48 21.484-48 48s21.5 48 48 48 48-21.484 48-48-21.5-48-48-48zM288 192h-64v64h64v-64zM400 32c-26.5 0-48 21.484-48 48s21.5 48 48 48 48-21.484 48-48-21.5-48-48-48z" />
<glyph unicode="&#xe643;" glyph-name="forbid" data-tags="forbid, deny, blocked" d="M256-32c-141.375 0-256 114.625-256 256 0 141.391 114.625 256 256 256s256-114.609 256-256c0-141.375-114.625-256-256-256zM64 224c0-41.312 13.312-79.312 35.531-110.656l267.125 267.14c-31.312 22.188-69.344 35.516-110.656 35.516-106.031 0-192-85.969-192-192zM412.469 334.656l-267.125-267.156c31.312-22.188 69.344-35.5 110.656-35.5 106.031 0 192 85.969 192 192 0 41.312-13.312 79.328-35.531 110.656z" />
<glyph unicode="&#xe644;" glyph-name="book" data-tags="book, read, bookmark" d="M256 384l-192 96h-32c-17.688 0-32-14.328-32-32v-352c0-17.688 14.312-32 32-32l224-96 224 96c17.688 0 32 14.312 32 32v352c0 17.672-14.312 32-32 32h-32M224 48l-160 80v256l160-53.328v-282.672zM448 128l-160-80v282.672l160 53.328v-256z" />
<glyph unicode="&#xe645;" glyph-name="spinner" data-tags="spinner, loading, busy, wheel" d="M480 192h-64c-17.688 0-32 14.312-32 32s14.312 32 32 32h64c17.688 0 32-14.312 32-32s-14.312-32-32-32zM391.75 314.5c-12.5-12.5-32.75-12.5-45.25 0s-12.5 32.75 0 45.25l45.25 45.25c12.5 12.5 32.75 12.5 45.25 0s12.5-32.75 0-45.25l-45.25-45.25zM256-32c-17.688 0-32 14.312-32 32v64c0 17.688 14.312 32 32 32s32-14.312 32-32v-64c0-17.688-14.312-32-32-32zM256 352c-17.688 0-32 14.312-32 32v64c0 17.688 14.312 32 32 32s32-14.312 32-32v-64c0-17.688-14.312-32-32-32zM120.25 43c-12.5-12.5-32.75-12.5-45.25 0-12.5 12.469-12.5 32.75 0 45.25l45.25 45.25c12.5 12.5 32.75 12.5 45.25 0s12.5-32.75 0-45.25l-45.25-45.25zM120.25 314.5l-45.25 45.25c-12.5 12.5-12.5 32.75 0 45.25s32.75 12.5 45.25 0l45.25-45.25c12.5-12.5 12.5-32.75 0-45.25s-32.75-12.5-45.25 0zM128 224c0-17.688-14.312-32-32-32h-64c-17.688 0-32 14.312-32 32s14.312 32 32 32h64c17.688 0 32-14.312 32-32zM391.75 133.5l45.25-45.25c12.5-12.5 12.5-32.781 0-45.25-12.5-12.5-32.75-12.5-45.25 0l-45.25 45.25c-12.5 12.5-12.5 32.75 0 45.25s32.75 12.5 45.25 0z" />
<glyph unicode="&#xe646;" glyph-name="play" data-tags="play, media control, video, movie" d="M256-32c-141.375 0-256 114.625-256 256 0 141.391 114.625 256 256 256s256-114.609 256-256c0-141.375-114.625-256-256-256zM256 416c-106.031 0-192-85.969-192-192s85.969-192 192-192 192 85.969 192 192-85.969 192-192 192zM192 320l160-96-160-96v192z" />
<glyph unicode="&#xe647;" glyph-name="stop" data-tags="stop, media control" d="M256-32c-141.375 0-256 114.625-256 256 0 141.391 114.625 256 256 256s256-114.609 256-256c0-141.375-114.625-256-256-256zM256 416c-106.031 0-192-85.969-192-192s85.969-192 192-192 192 85.969 192 192-85.969 192-192 192zM192 288h128v-128h-128v128z" />
<glyph unicode="&#xe648;" glyph-name="pause" data-tags="pause, media control" d="M256 480c-141.375 0-256-114.609-256-256 0-141.375 114.625-256 256-256s256 114.625 256 256c0 141.391-114.625 256-256 256zM256 32c-106.031 0-192 85.969-192 192s85.969 192 192 192 192-85.969 192-192-85.969-192-192-192zM160 160h64v128h-64v-128zM288 160h64v128h-64v-128z" />
<glyph unicode="&#xe649;" glyph-name="forward" data-tags="forward, media control" d="M256 480c-141.375 0-256-114.609-256-256 0-141.375 114.625-256 256-256s256 114.625 256 256c0 141.391-114.625 256-256 256zM256 32c-106.031 0-192 85.969-192 192s85.969 192 192 192 192-85.969 192-192-85.969-192-192-192zM384 224l-128 96v-72l-96 72v-192l96 72v-72z" />
<glyph unicode="&#xe64a;" glyph-name="rewind" data-tags="rewind, media  control" d="M256 480c-141.375 0-256-114.625-256-256 0-141.391 114.625-256 256-256s256 114.609 256 256c0 141.375-114.625 256-256 256zM256 32c-106.031 0-192 85.969-192 192s85.969 192 192 192 192-85.969 192-192-85.969-192-192-192zM128 224l128-96v72l96-72v192l-96-72v72z" />
<glyph unicode="&#xe64b;" glyph-name="sound" data-tags="sound, speaker, volume" d="M408.208 329.356c-12.985-12.954-33.994-12.954-46.98 0-12.955 12.955-12.955 33.995 0 46.981l93.931 93.931c12.986 12.955 33.995 12.955 46.981 0 12.954-12.955 12.954-33.995 0-46.98l-93.932-93.932zM255.871-31.727l-127.863 127.864h-95.898c-17.669 0-31.966 14.298-31.966 31.967v191.794c0 17.668 14.297 31.966 31.966 31.966h95.897l127.864 127.864c0 0 31.966 3.996 31.966-31.966 0-191.233 0-478.926 0-447.522 0-35.962-31.966-31.967-31.966-31.967zM223.905 351.864l-63.932-63.932h-95.897v-127.863h95.897l63.932-63.933v255.728zM383.734 192.035c-17.669 0-31.966 14.297-31.966 31.966s14.297 31.966 31.966 31.966h95.897c17.669 0 31.966-14.298 31.966-31.966s-14.297-31.966-31.966-31.966h-95.897zM408.208 118.645l93.932-93.931c12.954-12.986 12.954-34.026 0-46.981-12.986-12.955-33.995-12.955-46.981 0l-93.931 93.931c-12.955 12.986-12.955 34.026 0 46.981 12.986 12.955 33.995 12.955 46.98 0z" />
<glyph unicode="&#xe64c;" glyph-name="sound-alt" data-tags="sound-alt, speaker, volume" d="M319.967-23.497v67.34c74.368 26.424 127.933 96.7 127.933 180.157 0 83.426-53.565 153.732-127.934 180.156v67.341c110.288-28.485 191.902-128.309 191.902-247.497s-81.614-219.043-191.901-247.497zM256-31.868l-127.934 127.933h-95.951c-17.678 0-31.983 14.306-31.983 31.983v191.902c0 17.679 14.306 31.983 31.983 31.983h95.951l127.934 127.934c0 0 31.983 3.998 31.983-31.983 0-72.899 0-382.053 0-447.769 0-35.981-31.983-31.983-31.983-31.983zM224.017 351.934l-63.967-63.967h-95.951v-127.934h95.951l63.967-63.968v255.869zM415.917 224c0-59.532-40.854-109.132-95.95-123.405v68.309c19.053 11.087 31.983 31.483 31.983 55.096 0 23.612-12.931 44.008-31.983 55.097v68.308c55.096-14.274 95.95-63.874 95.95-123.405z" />
<glyph unicode="&#xe64d;" glyph-name="soundoff" data-tags="sound off, mute, volume, speaker" d="M511.603 176.274l-47.694-47.726-47.726 47.726-47.725-47.726-47.694 47.726 47.694 47.726-47.694 47.725 47.694 47.726 47.725-47.726 47.726 47.726 47.694-47.726-47.695-47.725 47.695-47.726zM256.266-31.868l-127.934 127.933h-95.951c-17.678 0-31.983 14.306-31.983 31.983v191.902c0 17.679 14.306 31.983 31.983 31.983h95.951l127.934 127.934c0 0 31.983 3.998 31.983-31.983 0-173.535 0-425.718 0-447.769 0-35.981-31.983-31.983-31.983-31.983zM224.282 351.934l-63.967-63.967h-95.951v-127.934h95.951l63.967-63.968v255.869z" />
<glyph unicode="&#xe64e;" glyph-name="task" data-tags="task, checkmark, tick" d="M325.719 352.375l-96.625-103.625-44.282 47.469-40.812-43.781 86.781-92.344 137.157 147.031zM480 480h-448c-17.688 0-32-14.312-32-32v-448c0-17.688 14.312-32 32-32h448c17.688 0 32 14.312 32 32v448c0 17.688-14.312 32-32 32zM448 128h-96v-96h-192v96h-96v288h384v-288z" />
<glyph unicode="&#xe64f;" glyph-name="inbox" data-tags="inbox, box, archive" d="M480 480h-448c-17.688 0-32-14.312-32-32v-448c0-17.688 14.312-32 32-32h448c17.688 0 32 14.312 32 32v448c0 17.688-14.312 32-32 32zM448 128h-96v-96h-192v96h-96v288h384v-288zM128 256h256v-64h-256zM128 352h256v-64h-256z" />
<glyph unicode="&#xe650;" glyph-name="inbox-alt" data-tags="inbox-alt, box" d="M384 480h-256l-128-256v-224c0-17.688 14.328-32 32-32h448c17.672 0 32 14.312 32 32v224l-128 256zM448 32h-384v192l96 192h192l96-192v-192zM320 352h-128l-64-128h64v-64h128v64h64z" />
<glyph unicode="&#xe651;" glyph-name="envelope" data-tags="envelope, mail, email, contact" d="M479.999 416h-447.999c-17.671 0-32-14.312-32-32v-320c0-17.688 14.329-32 32-32h447.999c17.672 0 32.001 14.312 32.001 32v320c0 17.688-14.329 32-32.001 32zM416 352l-160-128-160 128h320zM448 96h-384v224l192-160 192 160v-224z" />
<glyph unicode="&#xe652;" glyph-name="compose" data-tags="compose, write, blog, edit" d="M480-32h-448c-17.672 0-32 14.312-32 32v448c0 17.688 14.328 32 32 32h320l-64-64h-224v-384h384v224l64 64v-320c0-17.688-14.328-32-32-32zM128 96v96l288 288h32l64-64v-32l-288-288h-96zM272 208l176 176-32 32-176-176 32-32zM192 192l-32-32v-32h32l32 32-32 32z" />
<glyph unicode="&#xe653;" glyph-name="newspaper" data-tags="newspaper, paper" d="M128 128h160v-32h-160zM128 192h160v-32h-160zM128 352h160v-128h-160zM480 416h-96v64h-352c-17.688 0-32-14.328-32-32v-448c0-17.688 14.312-32 32-32h448c17.688 0 32 14.312 32 32v384c0 17.672-14.312 32-32 32zM448 32h-384v384h288v-320h32v256h64v-320z" />
<glyph unicode="&#xe654;" glyph-name="newspaper-alt" data-tags="newspaper-alt, paper" d="M480 480h-384c-17.688 0-32-14.328-32-32v-32h-32c-17.688 0-32-14.328-32-32v-384c0-17.688 14.312-32 32-32h448c17.688 0 32 14.312 32 32v448c0 17.672-14.312 32-32 32zM128 32h-64v320h64v-320zM448 32h-256v384h256v-384zM256 352h128v-64h-128zM256 160h128v-64h-128zM256 256h128v-64h-128z" />
<glyph unicode="&#xe655;" glyph-name="clipboard" data-tags="clipboard" d="M480-32h-448c-17.688 0-32 14.312-32 32v448c0 17.672 14.312 32 32 32h64v-64h-32v-384h384v384h-32v64h64c17.688 0 32-14.328 32-32v-448c0-17.688-14.312-32-32-32zM128 352h32v96h64v32h64v-32h64v-96h32v-256h-256v256zM288 416h-64v-32h64v32zM192 160h128v128h-128v-128z" />
<glyph unicode="&#xe656;" glyph-name="calendar" data-tags="calendar, date, schedule, time" d="M416 480h-64v-64h64v64zM480 480h-32v-96h-128v96h-128v-96h-128v96h-32c-17.688 0-32-14.328-32-32v-448c0-17.688 14.312-32 32-32h448c17.688 0 32 14.312 32 32v448c0 17.672-14.312 32-32 32zM448 32h-384v288h384v-288zM160 480h-64v-64h64v64zM288 256h-64v-64h64v64zM384 256h-64v-64h64v64zM192 160h-64v-64h64v64zM192 256h-64v-64h64v64zM288 160h-64v-64h64v64zM384 160h-64v-64h64v64z" />
<glyph unicode="&#xe657;" glyph-name="hyperlink" data-tags="hyperlink, link, chain" d="M503.466 347.732l-123.733 123.734c-11.38 11.379-29.855 11.379-41.234 0l-123.732-123.734c-11.411-11.379-11.411-29.854 0-41.265l20.601-20.601 123.733 123.733 82.499-82.499-123.733-123.733 20.632-20.632c11.379-11.38 29.854-11.38 41.234 0l123.732 123.732c11.38 11.411 11.38 29.887 0.001 41.265zM276.633 162.134l-123.733-123.734-82.499 82.499 123.732 123.733-20.632 20.632c-11.379 11.38-29.854 11.38-41.233 0l-123.734-123.732c-11.379-11.41-11.379-29.886 0-41.265l123.733-123.733c11.379-11.379 29.854-11.379 41.233 0l123.733 123.733c11.41 11.379 11.41 29.854 0 41.265l-20.6 20.602zM173.501 141.532c11.411-11.41 29.854-11.41 41.266 0l123.732 123.732c11.379 11.38 11.379 29.824 0 41.203-11.41 11.41-29.854 11.41-41.265 0l-123.733-123.732c-11.379-11.38-11.379-29.824 0-41.203z" />
<glyph unicode="&#xe658;" glyph-name="trash" data-tags="trash, remove, delete, garbage" d="M288 256h64v-160h-64zM480 384h-128v64c0 17.688-14.312 32-32 32h-128c-17.688 0-32-14.312-32-32v-64h-128c-17.688 0-32-14.312-32-32v-32h32v-320c0-17.688 14.312-32 32-32h384c17.688 0 32 14.312 32 32v320h32v32c0 17.688-14.312 32-32 32zM224 416h64v-32h-64v32zM416 32h-320v288h320v-288zM160 256h64v-160h-64z" />
<glyph unicode="&#xe659;" glyph-name="trash-alt" data-tags="trash-alt, remove, delete, garbage" d="M480 384h-128v64c0 17.688-14.312 32-32 32h-128c-17.688 0-32-14.312-32-32v-64h-128c-17.688 0-32-14.312-32-32v-32h64v-320c0-17.688 14.312-32 32-32h320c17.688 0 32 14.312 32 32v320h64v32c0 17.688-14.312 32-32 32zM224 416h64v-32h-64v32zM384 32h-256v288h256v-288z" />
<glyph unicode="&#xe65a;" glyph-name="grid" data-tags="grid, apps, squares, blocks" d="M192 192h-160c-17.688 0-32-14.312-32-32v-160c0-17.688 14.312-32 32-32h160c17.688 0 32 14.312 32 32v160c0 17.688-14.312 32-32 32zM160 32h-96v96h96v-96zM192 480h-160c-17.688 0-32-14.312-32-32v-160c0-17.688 14.312-32 32-32h160c17.688 0 32 14.312 32 32v160c0 17.688-14.312 32-32 32zM160 320h-96v96h96v-96zM480 192h-160c-17.688 0-32-14.312-32-32v-160c0-17.688 14.312-32 32-32h160c17.688 0 32 14.312 32 32v160c0 17.688-14.312 32-32 32zM448 32h-96v96h96v-96zM480 480h-160c-17.688 0-32-14.312-32-32v-160c0-17.688 14.312-32 32-32h160c17.688 0 32 14.312 32 32v160c0 17.688-14.312 32-32 32zM448 320h-96v96h96v-96z" />
<glyph unicode="&#xe65b;" glyph-name="grid-alt" data-tags="grid-alt, squares, apps" d="M480-32h-448c-17.688 0-32 14.312-32 32v448c0 17.688 14.312 32 32 32h448c17.688 0 32-14.312 32-32v-448c0-17.688-14.312-32-32-32zM448 416h-384v-384h384v384zM224 256h-96v96h96v-96zM224 96h-96v96h96v-96zM384 256h-96v96h96v-96zM384 96h-96v96h96v-96z" />
<glyph unicode="&#xe65c;" glyph-name="menu" data-tags="menu, list, options, nav" d="M128 160h256v-64h-256zM128 256h256v-64h-256zM480 480h-448c-17.688 0-32-14.312-32-32v-448c0-17.688 14.312-32 32-32h448c17.688 0 32 14.312 32 32v448c0 17.688-14.312 32-32 32zM448 32h-384v384h384v-384zM128 352h256v-64h-256z" />
<glyph unicode="&#xe65d;" glyph-name="list" data-tags="list, ul, options" d="M128 352h64v-64h-64zM128 256h64v-64h-64zM128 160h64v-64h-64zM256 160h128v-64h-128zM480 480h-448c-17.688 0-32-14.312-32-32v-448c0-17.688 14.312-32 32-32h448c17.688 0 32 14.312 32 32v448c0 17.688-14.312 32-32 32zM448 32h-384v384h384v-384zM256 256h128v-64h-128zM256 352h128v-64h-128z" />
<glyph unicode="&#xe65e;" glyph-name="gallery" data-tags="gallery, popup, popout" d="M480 480h-256c-17.688 0-32-14.312-32-32v-256c0-17.688 14.312-32 32-32h256c17.688 0 32 14.312 32 32v256c0 17.688-14.312 32-32 32zM448 224h-192v192h192v-192zM256 32h-192v192h64v64h-96c-17.688 0-32-14.312-32-32v-256c0-17.688 14.312-32 32-32h256c17.688 0 32 14.312 32 32v96h-64v-64z" />
<glyph unicode="&#xe65f;" glyph-name="calculator" data-tags="calculator, math, arithmetic" d="M448 480h-384c-17.688 0-32-14.312-32-32v-448c0-17.688 14.312-32 32-32h384c17.688 0 32 14.312 32 32v448c0 17.688-14.312 32-32 32zM160 32h-64v64h64v-64zM160 128h-64v64h64v-64zM160 224h-64v64h64v-64zM288 32h-64v64h64v-64zM288 128h-64v64h64v-64zM288 224h-64v64h64v-64zM416 32h-64v64h64v-64zM416 128h-64v64h64v-64zM416 224h-64v64h64v-64zM416 352h-320v64h320v-64z" />
<glyph unicode="&#xe660;" glyph-name="windows" data-tags="windows" d="M480 96h-32v320h-320v32c0 17.688 14.312 32 32 32h320c17.688 0 32-14.312 32-32v-320c0-17.688-14.312-32-32-32zM416 352v-352c0-17.688-14.312-32-32-32h-352c-17.688 0-32 14.312-32 32v352c0 17.688 14.312 32 32 32h352c17.688 0 32-14.312 32-32zM352 320h-288v-96h288v96zM352 160h-288v-128h288v128zM128 256h-32v32h32v-32zM192 256h-32v32h32v-32zM320 256h-96v32h96v-32z" />
<glyph unicode="&#xe661;" glyph-name="browser" data-tags="browser" d="M480-32h-448c-17.688 0-32 14.312-32 32v448c0 17.688 14.312 32 32 32h448c17.688 0 32-14.312 32-32v-448c0-17.688-14.312-32-32-32zM448 416h-384v-96h384v96zM448 256h-384v-224h384v224zM128 352h-32v32h32v-32zM192 352h-32v32h32v-32zM416 352h-192v32h192v-32z" />
<glyph unicode="&#xe662;" glyph-name="alarm" data-tags="alarm, clock, time, notification" d="M448.035 223.953c0 106.051-85.953 192.035-192.035 192.035-106.051 0-192.035-85.984-192.035-192.035 0-66.687 34.005-125.43 85.613-159.857l-53.482-53.463 42.57-42.633 69.842 69.843c15.19-3.865 31.1-5.925 47.492-5.925 16.394 0 32.305 2.059 47.493 5.923l69.841-69.841 42.57 42.633-53.477 53.457c51.612 34.427 85.608 93.174 85.608 159.863zM256 95.93c-70.7 0-128.023 57.322-128.023 128.023s57.323 128.023 128.023 128.023 128.023-57.323 128.023-128.023c0-70.701-57.323-128.023-128.023-128.023zM448.035 480c-35.351 0-64.012-28.662-64.012-64.012 0-2.909 0.213-5.768 0.589-8.574 21.307-14.963 39.885-33.542 54.849-54.849 2.807-0.376 5.665-0.588 8.574-0.588 35.351 0 64.012 28.661 64.012 64.012 0 35.349-28.661 64.011-64.012 64.011zM72.539 352.565c14.963 21.307 33.542 39.886 54.849 54.849 0.376 2.807 0.588 5.665 0.588 8.574 0.001 35.35-28.661 64.012-64.011 64.012s-64.012-28.662-64.012-64.012c0-35.351 28.661-64.012 64.012-64.012 2.909 0.001 5.767 0.213 8.574 0.589zM288.006 255.959v64.012h-64.012v-128.024h96.018v64.012z" />
<glyph unicode="&#xe663;" glyph-name="clock" data-tags="clock, time" d="M288 256v96h-64v-160h128v64zM256 480c-141.375 0-256-114.625-256-256s114.625-256 256-256 256 114.625 256 256-114.625 256-256 256zM256 32c-106.031 0-192 85.969-192 192s85.969 192 192 192 192-85.969 192-192-85.969-192-192-192z" />
<glyph unicode="&#xe664;" glyph-name="attachment" data-tags="attachment, paperclip" d="M288-28.781v-3.219h-64v3.219c-108.438 15.656-192 108.031-192 220.781v128c0 88.375 71.625 160 160 160 77.406 0 145.156-54.969 160-128v0-160c0-53.031-43-96-96-96s-96 42.969-96 96v128c0 17.688 14.312 32 32 32s32-14.312 32-32v-128c0-17.688 14.312-32 32-32s32 14.312 32 32v160c0 0-20.656 64-96 64-53 0-96-42.969-96-96v-128c0-88.375 71.625-160 160-160v0c88.375 0 160 71.625 160 160v256c0 17.688 14.312 32 32 32s32-14.312 32-32v-256c0-112.75-83.562-205.125-192-220.781z" />
<glyph unicode="&#xe665;" glyph-name="settings" data-tags="settings, cog, gear, options, preferences" d="M512 256v-64h-66.906c-4.781-28.344-16.047-54.375-31.828-77.031l67.109-58.344-46.188-57.062-73.984 64.344c-21.547-14-45.812-24.219-72.203-28.688v-67.219h-64v66.906c-26.469 4.469-50.766 14.781-72.328 28.906l-73.859-64.25-46.188 57.062 67.219 58.469c-15.656 22.626-26.844 48.595-31.625 76.907h-67.219v64h66.906c4.781 28.344 16.047 54.375 31.828 77.031l-67.109 58.344 46.188 57.062 73.984-64.344c21.547 14 45.812 24.219 72.203 28.688v67.219h64v-67.219c26.391-4.469 50.656-14.688 72.203-28.688l73.984 64.344 46.188-57.062-67.109-58.344c15.781-22.656 27.047-48.688 31.828-77.031h66.906zM256 320c-53.016 0-96-42.969-96-96s42.984-96 96-96 96 42.969 96 96-42.984 96-96 96z" />
<glyph unicode="&#xe666;" glyph-name="portfolio" data-tags="portfolio, briefcase, suitcase, work, business" d="M480 384h-128v64c0 17.688-14.328 32-32 32h-128c-17.672 0-32-14.312-32-32v-64h-128c-17.672 0-32-14.312-32-32v-352c0-17.688 14.328-32 32-32h448c17.672 0 32 14.312 32 32v352c0 17.688-14.328 32-32 32zM224 416h64v-32h-64v32zM448 32h-384v128h128v-32h128v32h128v-128zM448 192h-128v32h-128v-32h-128v128h384v-128z" />
<glyph unicode="&#xe667;" glyph-name="user" data-tags="user, profile, avatar" d="M381.844 234.594c1.187 6.968 2.156 14.062 2.156 21.406v96c0 70.688-57.312 128-128 128s-128-57.312-128-128v-96c0-7.344 0.969-14.438 2.156-21.406-77.437-27.5-130.156-78.969-130.156-138.594v-96c0-17.688 14.312-32 32-32h448c17.688 0 32 14.312 32 32v96c0 59.625-52.719 111.094-130.156 138.594zM192 352c0 35.344 28.656 64 64 64s64-28.656 64-64v-96c0-35.344-28.656-64-64-64s-64 28.656-64 64v96zM448 32h-384v64c0 34.562 36.812 64.594 91.594 81.5 23.437-29.938 59.468-49.5 100.406-49.5s76.969 19.562 100.406 49.5c54.782-16.906 91.594-46.938 91.594-81.5v-64z" />
<glyph unicode="&#xe668;" glyph-name="users" data-tags="users, group, team, profiles, people" d="M288 174.25v81.75c0 53.031-42.969 96-96 96s-96-42.969-96-96v-81.75c-57.156-22.188-96-63-96-110.25 0-5.656 0-64 0-64 0-17.688 14.312-32 32-32h320c17.688 0 32 14.312 32 32 0 0 0 58.344 0 64 0 47.25-38.844 88.062-96 110.25zM160 256c0 17.688 14.312 32 32 32s32-14.312 32-32v-96c0-17.688-14.312-32-32-32s-32 14.312-32 32v96zM320 32h-256v32c0 19.438 17.719 36.656 45.094 48.406 16.594-28.812 47.312-48.406 82.906-48.406s66.312 19.594 82.906 48.406c27.375-11.75 45.094-28.968 45.094-48.406v-32zM416 302.25v81.75c0 53.031-42.969 96-96 96s-96-42.969-96-96v-4.531c25.281-6.531 47.312-20.531 64-39.625v44.156c0 17.688 14.312 32 32 32s32-14.312 32-32v-96c0-17.688-14.312-32-32-32v-64c35.594 0 66.312 19.594 82.906 48.406 27.375-11.75 45.094-28.968 45.094-48.406v-32h-116.781c32.219-16.594 56.969-38.5 71.062-64h77.719c17.688 0 32 14.312 32 32 0 0 0 58.344 0 64 0 47.25-38.844 88.062-96 110.25z" />
<glyph unicode="&#xe669;" glyph-name="heart" data-tags="heart, love, like, favorite" d="M512 288c0-141.969-256-320-256-320s-256 178.031-256 320c-0.281 14.156 1.188 30.031 0 48-5.281 79.344 64.469 144 144 144 45.531 0 85.625-31.031 112-64 26.375 32.969 66.469 64 112 64 79.531 0 149.281-64.656 144-144-1.188-17.969 0.281-33.844 0-48zM448 336c3.969 44-35.812 80-80 80-82.906 0-80-64-80-64 0-17.688-14.312-32-32-32s-32 14.312-32 32c0 0 2.906 64-80 64-44.188 0-83.969-36-80-80 1.625-18.062-1.031-34.625 0.438-48-0.031 0-0.375 0-0.438 0 2 0.469-11-94.281 191.625-239.219 0.156 0.094 0.25 0.188 0.375 0.281 0.125-0.094 0.219-0.188 0.375-0.281 202.625 144.938 189.625 239.688 191.625 239.219-0.062 0-0.406 0-0.438 0 1.469 13.375-1.187 29.938 0.438 48z" />
<glyph unicode="&#xe66a;" glyph-name="chat" data-tags="chat, comment, bubble, talk" d="M304 480h-96c-114.875 0-208-93.125-208-208 0-74.438 39.406-139.25 98.188-176h-2.188v-128l144 96h64c114.875 0 208 93.125 208 208s-93.125 208-208 208zM304 128h-64l-80-48v56.812c-55.812 19.844-96 72.594-96 135.188 0 79.531 64.469 144 144 144h96c79.531 0 144-64.469 144-144s-64.469-144-144-144z" />
<glyph unicode="&#xe66b;" glyph-name="comments" data-tags="comments, chat, talk, bubble" d="M128 256h256v-64h-256zM128 352h256v-64h-256zM480 480h-448c-17.688 0-32-14.312-32-32v-352c0-17.688 14.312-32 32-32h64v-96l144 96h240c17.688 0 32 14.312 32 32v352c0 17.688-14.312 32-32 32zM448 128h-208l-80-48v48h-96v288h384v-288z" />
<glyph unicode="&#xe66c;" glyph-name="screen" data-tags="screen, display, monitor, pc, computer, desktop" d="M480 480h-448c-17.672 0-32-14.312-32-32v-352c0-17.688 14.328-32 32-32h192v-32h-96c-17.672 0-32-14.312-32-32v-32h320v32c0 17.688-14.328 32-32 32h-96v32h192c17.672 0 32 14.312 32 32v352c0 17.688-14.328 32-32 32zM448 128h-384v288h384v-288z" />
<glyph unicode="&#xe66d;" glyph-name="iphone" data-tags="iphone, mobile, phone, contact" d="M416 480h-320c-17.672 0-32-14.312-32-32v-448c0-17.688 14.328-32 32-32h320c17.672 0 32 14.312 32 32v448c0 17.688-14.328 32-32 32zM384 96h-256v320h256v-320z" />
<glyph unicode="&#xe66e;" glyph-name="ipad" data-tags="ipad, tablet, mobile" d="M480 480h-448c-17.672 0-32-14.312-32-32v-448c0-17.688 14.328-32 32-32h448c17.672 0 32 14.312 32 32v448c0 17.688-14.328 32-32 32zM448 96h-384v320h384v-320z" />
<glyph unicode="&#xe66f;" glyph-name="forkandspoon" data-tags="fork and spoon, lunch, food, restaurant, meal, dinner" d="M224 480c-17.672 0-32-14.312-32-32v-160h-32v160c0 17.688-14.328 32-32 32s-32-14.312-32-32v-160h-32v160c0 17.688-14.328 32-32 32s-32-14.312-32-32v-192c0-17.688 14.328-32 32-32h64v-224c0-17.688 14.328-32 32-32s32 14.312 32 32v224h64c17.672 0 32 14.312 32 32v192c0 17.688-14.328 32-32 32zM416 480c-53.016 0-96-42.969-96-96 0-41.75 26.797-76.906 64-90.125v-293.875c0-17.688 14.328-32 32-32s32 14.312 32 32v293.875c37.203 13.219 64 48.375 64 90.125 0 53.031-42.984 96-96 96z" />
<glyph unicode="&#xe670;" glyph-name="forkandknife" data-tags="fork and knife, lunch, food, restaurant, meal, dinner" d="M224 480c-17.672 0-32-14.312-32-32v-160h-32v160c0 17.688-14.328 32-32 32s-32-14.312-32-32v-160h-32v160c0 17.688-14.328 32-32 32s-32-14.312-32-32v-192c0-17.688 14.328-32 32-32h64v-224c0-17.688 14.328-32 32-32s32 14.312 32 32v224h64c17.672 0 32 14.312 32 32v192c0 17.688-14.328 32-32 32zM448 480c0 0-64-20.656-64-96v-64c0-41.75 26.797-76.906 64-90.125v-229.875c0-17.688 14.328-32 32-32s32 14.312 32 32v480h-64z" />
<glyph unicode="&#xe671;" glyph-name="instagram" data-tags="instagram, social" d="M480 480h-448c-17.688 0-32-14.312-32-32v-448c0-17.688 14.312-32 32-32h448c17.688 0 32 14.312 32 32v448c0 17.688-14.312 32-32 32zM192 224c0 0 5.062 64 64 64s64-64 64-64 1.844-64-64-64-64 64-64 64zM448 32h-384v224h68.531c-2.656-10.281-4.531-20.875-4.531-32 0-70.688 57.312-128 128-128s128 57.312 128 128c0 11.125-1.875 21.719-4.531 32h68.531v-224zM448 320h-96v96h96v-96z" />
<glyph unicode="&#xe672;" glyph-name="facebook" data-tags="facebook, social" d="M480-32h-448c-17.688 0-32 14.312-32 32v448c0 17.688 14.312 32 32 32h448c17.688 0 32-14.312 32-32v-448c0-17.688-14.312-32-32-32zM448 416h-384v-384h384v384zM256 288c0 35.281 29.188 64 59.438 64h36.562v-64h-32v-32h32v-64h-32v-96h-64v96h-32v64h32v32z" />
<glyph unicode="&#xe673;" glyph-name="delicious" data-tags="delicious, social" d="M480 480h-448c-17.688 0-32-14.312-32-32v-448c0-17.688 14.312-32 32-32h448c17.688 0 32 14.312 32 32v448c0 17.688-14.312 32-32 32zM448 32h-192v192h-192v192h192v-192h192v-192z" />
<glyph unicode="&#xe674;" glyph-name="googleplus" data-tags="googleplus, social, gplus" d="M64 192h-64v-192c0-17.688 14.312-32 32-32h192v64h-160v160zM64 416h160v64h-192c-17.688 0-32-14.312-32-32v-192h64v160zM448 32h-160v-64h192c17.688 0 32 14.312 32 32v192h-64v-160zM480 480h-192v-64h160v-160h64v192c0 17.688-14.312 32-32 32zM288 256v96h-64v-96h-96v-64h96v-96h64v96h96v64z" />
<glyph unicode="&#xe675;" glyph-name="dribbble" data-tags="dribbble, social" d="M256 480c-141.385 0-256-114.615-256-256s114.615-256 256-256 256 114.615 256 256-114.615 256-256 256zM256 428.812c47.562 0 90.812-16.906 125.562-44.125-16.156-13.938-50.875-40.375-103.938-65.438-19.562 34.531-42.594 69.531-70.125 103.156 15.626 3.814 31.72 6.407 48.501 6.407zM168.938 408.719c15.5-21.062 41-58.375 67.906-106-57.469-18.844-123.875-19.469-175.25-15.344 17.656 53.625 56.781 97.437 107.344 121.344zM253.25 272.719c7.188-13.75 14.281-28.562 21.281-43.594-107.312-23.531-157.562-93.969-177.656-132.594-28.156 35.062-45.688 79-45.688 127.469 0 9.062 0.812 17.906 1.969 26.625 40.375-5.594 111.844-7.781 200.094 22.094zM292.281 187.812c19.156-46.812 35.969-97.531 45.781-151.25-25.156-11.031-52.844-17.375-82.062-17.375-48.594 0-92.625 17.656-127.75 45.906 50.844 70.688 109.781 106.345 164.031 122.719zM374.719 57.656c-2.594 14.656-13.781 69.438-40.281 139.562 62.031 9.188 111.25-2.938 123.312-6.438-9.031-54.749-39.688-102.124-83.031-133.124zM318.969 235.469c-7.438 17.281-15.438 34.938-24.781 53.125 37.062 16.031 76.438 37.938 117.219 67.375 30.375-35.719 49.406-81.406 49.406-131.969-54.625 12.125-101.375 14.781-141.844 11.469z" />
<glyph unicode="&#xe676;" glyph-name="pin" data-tags="pin, location, map, marker" d="M256 480c-106.031 0-192-85.969-192-192s192-320 192-320 192 213.969 192 320-85.969 192-192 192zM256 160c-70.688 0-128 57.312-128 128s57.312 128 128 128 128-57.312 128-128-57.312-128-128-128z" />
<glyph unicode="&#xe677;" glyph-name="pin-alt" data-tags="pin-alt, location, map, marker" d="M256 480c-106.031 0-192-85.969-192-192s192-320 192-320 192 213.969 192 320-85.969 192-192 192zM256 160c-70.688 0-128 57.312-128 128s57.312 128 128 128 128-57.312 128-128-57.312-128-128-128zM256 352c-35.344 0-64-28.656-64-64s28.656-64 64-64 64 28.656 64 64-28.656 64-64 64z" />
<glyph unicode="&#xe678;" glyph-name="camera" data-tags="camera, photo, images, pictures" d="M480 384h-128v64c0 17.656-14.328 32-32 32h-128c-17.672 0-32-14.344-32-32v-64h-64v32h-64v-32c-17.672 0-32-14.344-32-32v-352c0-17.688 14.328-32 32-32h448c17.672 0 32 14.312 32 32v352c0 17.656-14.328 32-32 32zM224 416h64v-32h-64v32zM448 32h-384v288h384v-288zM256 96c53.016 0 96 42.969 96 96s-42.984 96-96 96-96-42.969-96-96 42.984-96 96-96zM256 224c17.672 0 32-14.312 32-32s-14.328-32-32-32-32 14.312-32 32 14.328 32 32 32z" />
<glyph unicode="&#xe679;" glyph-name="brightness" data-tags="brightness, sun" d="M32 256c-17.672 0-32-14.312-32-32s14.328-32 32-32 32 14.312 32 32-14.328 32-32 32zM96 352c17.672 0 32 14.312 32 32s-14.328 32-32 32-32-14.312-32-32 14.328-32 32-32zM256 416c17.672 0 32 14.312 32 32 0 17.656-14.328 32-32 32s-32-14.344-32-32c0-17.688 14.328-32 32-32zM96 96c-17.672 0-32-14.312-32-32s14.328-32 32-32 32 14.312 32 32-14.328 32-32 32zM416 96c-17.672 0-32-14.312-32-32s14.328-32 32-32 32 14.312 32 32-14.328 32-32 32zM256 352c-70.688 0-128-57.312-128-128s57.312-128 128-128 128 57.312 128 128-57.312 128-128 128zM256 160c-35.344 0-64 28.656-64 64s28.656 64 64 64 64-28.656 64-64-28.656-64-64-64zM480 256c-17.672 0-32-14.312-32-32s14.328-32 32-32 32 14.312 32 32-14.328 32-32 32zM256 32c-17.672 0-32-14.344-32-32 0-17.688 14.328-32 32-32s32 14.312 32 32c0 17.656-14.328 32-32 32zM416 352c17.672 0 32 14.312 32 32s-14.328 32-32 32-32-14.312-32-32 14.328-32 32-32z" />
<glyph unicode="&#xe67a;" glyph-name="brightness-half" data-tags="brightness-half, contrast" d="M256 352c-70.688 0-128-57.312-128-128s57.312-128 128-128 128 57.312 128 128-57.312 128-128 128zM256 160c-35.344 0-64 28.656-64 64s28.656 64 64 64v-128zM256 416c17.672 0 32 14.312 32 32 0 17.656-14.328 32-32 32s-32-14.344-32-32c0-17.688 14.328-32 32-32zM96 352c17.672 0 32 14.312 32 32s-14.328 32-32 32-32-14.312-32-32 14.328-32 32-32zM32 256c-17.672 0-32-14.312-32-32s14.328-32 32-32 32 14.312 32 32-14.328 32-32 32zM96 96c-17.672 0-32-14.312-32-32s14.328-32 32-32 32 14.312 32 32-14.328 32-32 32zM256 32c-17.672 0-32-14.344-32-32 0-17.688 14.328-32 32-32s32 14.312 32 32c0 17.656-14.328 32-32 32zM416 96c-17.672 0-32-14.312-32-32s14.328-32 32-32 32 14.312 32 32-14.328 32-32 32zM480 256c-17.672 0-32-14.312-32-32s14.328-32 32-32 32 14.312 32 32-14.328 32-32 32zM416 352c17.672 0 32 14.312 32 32s-14.328 32-32 32-32-14.312-32-32 14.328-32 32-32z" />
<glyph unicode="&#xe67b;" glyph-name="moon" data-tags="moon, night" d="M255.843 367.964c0.062-79.524 64.464-143.988 143.987-143.988 42.684 0 80.649 18.936 108.615 62.745 4.719-0.844 3.688-43.309 3.375-62.745-2.281-141.363-114.615-255.978-255.978-255.978s-255.979 114.615-255.979 255.978 114.616 254.103 255.98 255.978c16.874 0.219 34.653-0.312 63.433-1.719-17.906-18.279-63.464-62.619-63.433-110.271zM191.848 319.968c0 34.591 11.218 66.401 29.873 92.555-89.68-16.155-157.861-94.21-157.861-188.546 0-106.021 85.961-191.984 191.983-191.984 94.335 0 172.392 68.182 188.546 157.861-26.154-18.654-57.963-29.871-92.555-29.871-88.367-0.001-159.986 71.618-159.986 159.985z" />
<glyph unicode="&#xe67c;" glyph-name="cloud" data-tags="cloud, weather" horiz-adv-x="576" d="M400 352c-5.594 0-10.844-1.125-16.312-1.656-36.813 58.5-101.469 97.656-175.688 97.656-114.875 0-208-93.125-208-208v-32c0-109.406 84.75-199.719 192-208h224c89.594 8.188 160 84.281 160 176 0 97.188-78.812 176-176 176zM416 64h-224c-17.906 2-34.656 8.75-49.969 16.688-0.312 0.156-0.594 0.344-0.906 0.5-7.156 3.781-13.938 8.031-20.312 12.938-0.938 0.688-1.781 1.469-2.688 2.188-5.625 4.531-11 9.312-15.906 14.656-1.562 1.656-2.875 3.531-4.344 5.281-3.969 4.749-7.875 9.561-11.219 14.811-1.969 3.062-3.469 6.375-5.188 9.562-2.406 4.5-4.938 8.844-6.844 13.594-2 4.844-3.25 10-4.688 15.094-1.031 3.594-2.375 7-3.125 10.719-1.78 9.031-2.811 18.375-2.811 27.969v32c0 79.531 64.469 144 144 144 10.75 0 21.156-1.375 31.25-3.625 2.062-0.469 4-1.312 6.031-1.875 8.188-2.188 16.125-4.938 23.656-8.469 1.281-0.625 2.469-1.375 3.75-2.031 8.281-4.188 16.031-9.125 23.312-14.781 0.344-0.281 0.688-0.562 1.062-0.844 24.531-19.5 42.562-46.531 50.312-77.938 15.689 8.501 33.502 13.563 52.627 13.563 61.844 0 112-50.156 112-112 0-56.375-41.781-104.188-96-112z" />
<glyph unicode="&#xe67d;" glyph-name="circle-full" data-tags="circle-full" d="M256-32c-141.375 0-256 114.625-256 256s114.625 256 256 256 256-114.625 256-256-114.625-256-256-256zM256 416c-106.031 0-192-85.969-192-192s85.969-192 192-192 192 85.969 192 192-85.969 192-192 192zM256 96c-70.688 0-128 57.312-128 128s57.312 128 128 128 128-57.312 128-128-57.312-128-128-128z" />
<glyph unicode="&#xe67e;" glyph-name="circle-half" data-tags="circle-half, contrast" d="M256-32c-141.375 0-256 114.625-256 256s114.625 256 256 256 256-114.625 256-256-114.625-256-256-256zM256 416c-106.031 0-192-85.969-192-192s85.969-192 192-192 192 85.969 192 192-85.969 192-192 192zM128 224c0 70.688 57.312 128 128 128v-256c-70.688 0-128 57.312-128 128z" />
<glyph unicode="&#xe67f;" glyph-name="globe" data-tags="globe, earth, world" d="M256-32c-141.375 0-256 114.625-256 256s114.625 256 256 256 256-114.625 256-256-114.625-256-256-256zM256 416c-106.031 0-192-85.969-192-192s85.969-192 192-192 192 85.969 192 192-85.969 192-192 192zM350.094 108.594l-5.625-3.281-16.25-9.906-9.594-6.969c-7.125-3.406-14.562-6.094-22.25-8.375v9.437l-2.719 21.719c0 0-1.344 12.531-3.375 15.812-2.031 3.312-6.781 7.938-11.531 9.906s-8.125 1.969-10.844 5.25c-2.719 3.312-4.75 9.25-8.125 14.5-3.406 5.281-7.469 10.562-7.469 13.188s0 29.656 0 29.656l3.406 25.031 7.438 5.281 8.812 9.875 6.094 1.969 21-3.938h14.906l6.125-12.531 14.219-11.188 8.812-13.844 11.5-3.938h12.876l8.812-10.562 5.438-11.188 2.031-7.906v-13.188l-1.406-7.781c-8.594-14.092-19.5-26.498-32.281-37.029zM297.719 335.938l-14.906-7.906-5.406-15.156-8.812-7.906h-29.156l-13.531-5.281-0.688-10.531-5.406-8.562-1.375-9.25 2.719-7.906 3.375-7.906c0 0 8.156-9.219 0-15.812 0 0-10.156 0-12.188 3.312-2.031 3.281-16.938 12.5-19.656 15.156-2.688 2.625-11.5 5.25-11.5 5.25l-10.844 3.969-10.156 0.656 0.656 13.844-0.656 11.844-4.094 8.562-11.5 8.594-0.688 9.219 1.406 5.125c27.438 26.531 65.25 42.969 107 42.969 23.562 0 45.594-5.656 65.5-14.969l-0.438-3.469-19.656-13.846z" />
<glyph unicode="&#xe680;" glyph-name="phone" data-tags="phone, contact, call, telephone, support" d="M287.462 198.938c-40.525-40.55-87.475-79.309-106.035-60.723-26.573 26.547-42.931 49.69-101.504 2.637s-13.594-78.438 12.16-104.192c29.696-29.671 140.391-1.562 249.831 107.853 109.389 109.415 137.549 220.135 107.827 249.831-25.728 25.753-57.088 70.707-104.166 12.16s-23.936-74.931 2.637-101.504c18.509-18.586-20.224-65.511-60.749-106.061z" />
</font>
</defs>
</svg>
